<svg xmlns="http://www.w3.org/2000/svg" viewBox="0 0 336 250"
  role="img" aria-labelledby="title">
  <title id="title">Wingstaff winged-staff mark</title>
  <defs>
    <clipPath id="wingstaff-mark-mark-band" clipPathUnits="userSpaceOnUse">
      <rect x="0" y="154" width="280" height="30"/>
    </clipPath>
  </defs>
  <g transform="translate(28 20) scale(1.0)">
    <path d="M 140 78 C 112 42, 72 34, 30 54 C 56 64, 82 70, 106 82 C 72 74, 40 82, 18 104 C 51 99, 80 100, 110 96 C 76 102, 50 118, 34 144 C 67 132, 97 120, 122 106 L 140 114 Z" fill="#ffc72c"/>
    <path d="M 140 78 C 168 42, 208 34, 250 54 C 224 64, 198 70, 174 82 C 208 74, 240 82, 262 104 C 229 99, 200 100, 170 96 C 204 102, 230 118, 246 144 C 213 132, 183 120, 158 106 L 140 114 Z" fill="#ffc72c"/>
    <circle cx="140" cy="38" r="22" fill="#ffc72c"/>
    <rect x="130" y="38" width="20" height="146" rx="10" fill="#ffc72c"/>
    <path d="M 112 184 L 168 184 L 154 202 L 126 202 Z" fill="#f9a23a"/>
  </g>
  <g transform="translate(28 20) scale(1.0)" clip-path="url(#wingstaff-mark-mark-band)">
    <path d="M 140 78 C 112 42, 72 34, 30 54 C 56 64, 82 70, 106 82 C 72 74, 40 82, 18 104 C 51 99, 80 100, 110 96 C 76 102, 50 118, 34 144 C 67 132, 97 120, 122 106 L 140 114 Z" fill="#f9a23a"/>
    <path d="M 140 78 C 168 42, 208 34, 250 54 C 224 64, 198 70, 174 82 C 208 74, 240 82, 262 104 C 229 99, 200 100, 170 96 C 204 102, 230 118, 246 144 C 213 132, 183 120, 158 106 L 140 114 Z" fill="#f9a23a"/>
    <rect x="130" y="38" width="20" height="146" rx="10" fill="#f9a23a"/>
  </g>
</svg>
