<svg xmlns="http://www.w3.org/2000/svg" viewBox="0 0 336 250"
  role="img" aria-labelledby="title">
  <title id="title">Daidala crafted-D mark</title>

  <defs>
    <clipPath id="daidala-mark-mark-band" clipPathUnits="userSpaceOnUse">
      <rect x="28" y="190.00" width="288.00"
            height="26.00"/>
    </clipPath>
    <mask id="daidala-mark-mark-opening" maskUnits="userSpaceOnUse" x="0" y="0"
          width="288" height="220">
      <rect width="288" height="220" fill="white"/>
      <path d="M 92 60 H 128 C 164 60 196 82 196 110 C 196 138 164 160 128 160 H 92 Z" fill="black"/>
      <path d="M 76 196 V 178 H 94 V 160 H 112 V 150" fill="none" stroke="black" stroke-width="18"
            stroke-linecap="round" stroke-linejoin="round"/>
    </mask>
  </defs>
  <g transform="translate(28 25) scale(1.0)" mask="url(#daidala-mark-mark-opening)">
    <path d="M 54 24 H 128 C 190 24 234 60 234 110 C 234 160 190 196 128 196 H 54 Z" fill="#ffc72c"/>
  </g>
  <g clip-path="url(#daidala-mark-mark-band)">
    <g transform="translate(28 25) scale(1.0)" mask="url(#daidala-mark-mark-opening)">
      <path d="M 54 24 H 128 C 190 24 234 60 234 110 C 234 160 190 196 128 196 H 54 Z" fill="#f9a23a"/>
    </g>
  </g>
</svg>
