<svg xmlns="http://www.w3.org/2000/svg" viewBox="0 0 1741 284"
  role="img" aria-labelledby="title">
  <title id="title">Wingstaff</title>
  <rect x="54.00" y="173.00" width="1617.03" height="26" fill="#f9a23a"/>

  <defs>
    <clipPath id="wingstaff-mark-band" clipPathUnits="userSpaceOnUse">
      <rect x="0" y="170" width="280" height="26"/>
    </clipPath>
  </defs>
  <g transform="translate(54 3) scale(1.0)">
    <path d="M 140 78 C 112 42, 72 34, 30 54 C 56 64, 82 70, 106 82 C 72 74, 40 82, 18 104 C 51 99, 80 100, 110 96 C 76 102, 50 118, 34 144 C 67 132, 97 120, 122 106 L 140 114 Z" fill="#ffc72c"/>
    <path d="M 140 78 C 168 42, 208 34, 250 54 C 224 64, 198 70, 174 82 C 208 74, 240 82, 262 104 C 229 99, 200 100, 170 96 C 204 102, 230 118, 246 144 C 213 132, 183 120, 158 106 L 140 114 Z" fill="#ffc72c"/>
    <circle cx="140" cy="38" r="22" fill="#ffc72c"/>
    <rect x="130" y="38" width="20" height="146" rx="10" fill="#ffc72c"/>
    <path d="M 112 184 L 168 184 L 154 202 L 126 202 Z" fill="#f9a23a"/>
  </g>
  <g transform="translate(54 3) scale(1.0)" clip-path="url(#wingstaff-mark-band)">
    <path d="M 140 78 C 112 42, 72 34, 30 54 C 56 64, 82 70, 106 82 C 72 74, 40 82, 18 104 C 51 99, 80 100, 110 96 C 76 102, 50 118, 34 144 C 67 132, 97 120, 122 106 L 140 114 Z" fill="#f9a23a"/>
    <path d="M 140 78 C 168 42, 208 34, 250 54 C 224 64, 198 70, 174 82 C 208 74, 240 82, 262 104 C 229 99, 200 100, 170 96 C 204 102, 230 118, 246 144 C 213 132, 183 120, 158 106 L 140 114 Z" fill="#f9a23a"/>
    <rect x="130" y="38" width="20" height="146" rx="10" fill="#f9a23a"/>
  </g>
  <defs>
    <clipPath id="wingstaff-word-band" clipPathUnits="userSpaceOnUse">
      <rect x="386.00" y="170.00" width="1289.03" height="26.00"/>
    </clipPath>
  </defs>
  <g transform="translate(390 207) scale(0.16800000 -0.16800000)" fill="#ffc72c"><path d="M761 597 887 194 1022 580Q1034 614 1040.0 638.5Q1046 663 1046 680Q1046 711 1024.5 720.5Q1003 730 958 730V770H1242V730Q1205 730 1174.0 711.5Q1143 693 1127 649L886 -10H797L623 518L425 -10H342L130 574Q105 643 83.5 676.0Q62 709 36.5 719.0Q11 729 -28 729V770H350V729Q300 729 280.5 719.5Q261 710 261 688Q261 672 266.0 655.5Q271 639 286 597L426 194L588 636Q575 673 560.5 691.5Q546 710 525.5 718.0Q505 726 473 729V770H826V729Q785 729 764.5 718.5Q744 708 744 678Q744 663 748.5 643.0Q753 623 761 597Z" transform="translate(0.0000 0)"/><path d="M36 0V39.9Q81 42 103.38095238095238 52.0Q125.76190476190476 62 133.38095238095238 92.0Q141 122 141 184V586.4924406047517Q141 643 134.35 673.0Q127.7 703 107.275 715.5Q86.85 728 46 730V770H383V730Q342 728 321.5 715.5Q301 703 294.5 673.048Q288 643.096 288 586V184Q288 121.5813953488372 295.5 91.7906976744186Q303 62 325.5 52.0Q348 42 393 40V0Z" transform="translate(1286.5238 0)"/><path d="M670 -10 226.73277661795407 621H223V191.40162271805275Q223 125 230.35353535353534 93.5Q237.7070707070707 62 260.2929292929293 52.0Q282.8787878787879 42 327 40V0H30V39.9Q79 42 103.61904761904762 52.0Q128.23809523809524 62 136.61904761904762 92.0Q145 122 145 184V586.4924406047517Q145 643 137.65 673.0Q130.3 703 107.72500000000001 715.5Q85.15 728 40 730V770H319L722.3083900226758 192H726V579Q726 645 718.6464646464647 676.5Q711.2929292929293 708 689.2323232323233 718.5Q667.1717171717172 729 622 730V770H919V730.0512820512821Q870 729 845.3809523809524 718.5283400809717Q820.7619047619048 708.0566801619433 812.3809523809524 678.1376518218624Q804 648.2186234817814 804 586.3859649122807V-10Z" transform="translate(1775.0476 0)"/><path d="M438 -10Q318 -10 230.5 36.5Q143 83 95.0 168.5Q47 254 47 371Q47 493 98.0 585.0Q149 677 240.0 728.5Q331 780 450 780Q512 780 568.0 763.0Q624 746 689 708L708 770H744V517H694Q681 580 649.5 624.0Q618 668 570.5 691.5Q523 715 462 715Q386 715 332.0 675.0Q278 635 249.0 560.0Q220 485 220 379Q220 224 282.5 140.5Q345 57 462 57Q518 57 558.5 77.0Q599 97 620.5 133.5Q642 170 642 221Q642 267 617.5 289.0Q593 311 537 315V355H861V315Q812 315 793.0 293.5Q774 272 774 216V83Q745 83 726.5 80.0Q708 77 687.5 67.0Q667 57 630 35Q592 13 543.5 1.5Q495 -10 438 -10Z" transform="translate(2774.5714 0)"/><path d="M69 0 54 255H93Q107 161 169.5 106.0Q232 51 322 51Q397 51 443.0 85.5Q489 120 489 175Q489 207 474.5 229.0Q460 251 419.5 272.5Q379 294 301 323Q224 353 173.0 389.0Q122 425 97.0 470.0Q72 515 72 568Q72 631 103.5 678.5Q135 726 190.5 753.0Q246 780 319 780Q418 780 504 716L522 766H546L557 550H518Q494 632 443.0 675.5Q392 719 325 719Q264 719 225.0 688.5Q186 658 186 610Q186 582 199.5 561.5Q213 541 250.0 521.5Q287 502 356 476Q449 441 507.0 402.5Q565 364 591.5 319.5Q618 275 618 219Q618 152 580.0 100.0Q542 48 475.0 19.0Q408 -10 320 -10Q261 -10 212.0 6.5Q163 23 113 60L93 0Z" transform="translate(3710.0952 0)"/><path d="M804.6339869281046 770 815 550H772Q767.8048780487804 616.0819672131147 748.4024390243902 652.5409836065573Q729 689 693.5 703.5Q658 718 604 718Q552.5 718 526.75 715.5Q501 713 493.0 706.24Q485 699.48 485 687V163Q485 120 493.8953488372093 93.5Q502.7906976744186 67 532.0930232558139 54.5Q561.3953488372093 42 620 40V0H201V39.9Q261 42 290.0068493150685 54.5Q319.013698630137 67 328.5068493150685 93.5Q338 120 338 163V687.2413162705667Q338 699 331.0 706.0Q324 713 302.0 715.5Q280 718 235 718Q199 718 166.0 714.1Q133 710.2 108.0 694.6Q83 679 68.03225806451613 644.7522123893805Q53.064516129032256 610.5044247787611 51 550H12L22 770Z" transform="translate(4432.6190 0)"/><path d="M-13 0V40Q35 45 60.0 61.5Q85 78 102 121L365 780H439L678 196Q699 145 714.0 115.5Q729 86 745.0 71.0Q761 56 782.5 50.0Q804 44 838 41V0H460V41Q508 43 529.0 51.0Q550 59 550 83Q550 97 543.0 119.5Q536 142 524 173L501 233H218Q194 179 182.5 143.0Q171 107 171 86Q171 56 193.5 48.0Q216 40 261 40V0ZM241 293H479L364 596H360Z" transform="translate(5319.1429 0)"/><path d="M35 0V39.9Q80 42 102.38095238095238 50.5Q124.76190476190476 59 132.38095238095238 83.0Q140 107 140 154V616.3664717348928Q140 663 133.0 686.5Q126 710 106.0 719.0Q86 728 46 730V770H658L670 559H628Q620 616 601.5 650.0Q583 684 545.516129032258 699.0Q508.0322580645161 714 443 714H305.4166666666667Q287 714 287 697V408Q368 408 411.0 418.0Q454 428 472.0 456.0Q490 484 495 538H532V225H495Q489 267 477.5 292.5Q466 318 444.0 331.5Q422 345 384.0 350.0Q346 355 287 355V161Q287 110 296.9784172661871 84.5Q306.9568345323741 59 338.4676258992806 50.5Q369.9784172661871 42 433 40V0Z" transform="translate(6187.6667 0)"/><path d="M35 0V39.9Q80 42 102.38095238095238 50.5Q124.76190476190476 59 132.38095238095238 83.0Q140 107 140 154V616.3664717348928Q140 663 133.0 686.5Q126 710 106.0 719.0Q86 728 46 730V770H658L670 559H628Q620 616 601.5 650.0Q583 684 545.516129032258 699.0Q508.0322580645161 714 443 714H305.4166666666667Q287 714 287 697V408Q368 408 411.0 418.0Q454 428 472.0 456.0Q490 484 495 538H532V225H495Q489 267 477.5 292.5Q466 318 444.0 331.5Q422 345 384.0 350.0Q346 355 287 355V161Q287 110 296.9784172661871 84.5Q306.9568345323741 59 338.4676258992806 50.5Q369.9784172661871 42 433 40V0Z" transform="translate(6936.1905 0)"/></g>
  <g transform="translate(390 207) scale(0.16800000 -0.16800000)" fill="#f9a23a" clip-path="url(#wingstaff-word-band)"><path d="M761 597 887 194 1022 580Q1034 614 1040.0 638.5Q1046 663 1046 680Q1046 711 1024.5 720.5Q1003 730 958 730V770H1242V730Q1205 730 1174.0 711.5Q1143 693 1127 649L886 -10H797L623 518L425 -10H342L130 574Q105 643 83.5 676.0Q62 709 36.5 719.0Q11 729 -28 729V770H350V729Q300 729 280.5 719.5Q261 710 261 688Q261 672 266.0 655.5Q271 639 286 597L426 194L588 636Q575 673 560.5 691.5Q546 710 525.5 718.0Q505 726 473 729V770H826V729Q785 729 764.5 718.5Q744 708 744 678Q744 663 748.5 643.0Q753 623 761 597Z" transform="translate(0.0000 0)"/><path d="M36 0V39.9Q81 42 103.38095238095238 52.0Q125.76190476190476 62 133.38095238095238 92.0Q141 122 141 184V586.4924406047517Q141 643 134.35 673.0Q127.7 703 107.275 715.5Q86.85 728 46 730V770H383V730Q342 728 321.5 715.5Q301 703 294.5 673.048Q288 643.096 288 586V184Q288 121.5813953488372 295.5 91.7906976744186Q303 62 325.5 52.0Q348 42 393 40V0Z" transform="translate(1286.5238 0)"/><path d="M670 -10 226.73277661795407 621H223V191.40162271805275Q223 125 230.35353535353534 93.5Q237.7070707070707 62 260.2929292929293 52.0Q282.8787878787879 42 327 40V0H30V39.9Q79 42 103.61904761904762 52.0Q128.23809523809524 62 136.61904761904762 92.0Q145 122 145 184V586.4924406047517Q145 643 137.65 673.0Q130.3 703 107.72500000000001 715.5Q85.15 728 40 730V770H319L722.3083900226758 192H726V579Q726 645 718.6464646464647 676.5Q711.2929292929293 708 689.2323232323233 718.5Q667.1717171717172 729 622 730V770H919V730.0512820512821Q870 729 845.3809523809524 718.5283400809717Q820.7619047619048 708.0566801619433 812.3809523809524 678.1376518218624Q804 648.2186234817814 804 586.3859649122807V-10Z" transform="translate(1775.0476 0)"/><path d="M438 -10Q318 -10 230.5 36.5Q143 83 95.0 168.5Q47 254 47 371Q47 493 98.0 585.0Q149 677 240.0 728.5Q331 780 450 780Q512 780 568.0 763.0Q624 746 689 708L708 770H744V517H694Q681 580 649.5 624.0Q618 668 570.5 691.5Q523 715 462 715Q386 715 332.0 675.0Q278 635 249.0 560.0Q220 485 220 379Q220 224 282.5 140.5Q345 57 462 57Q518 57 558.5 77.0Q599 97 620.5 133.5Q642 170 642 221Q642 267 617.5 289.0Q593 311 537 315V355H861V315Q812 315 793.0 293.5Q774 272 774 216V83Q745 83 726.5 80.0Q708 77 687.5 67.0Q667 57 630 35Q592 13 543.5 1.5Q495 -10 438 -10Z" transform="translate(2774.5714 0)"/><path d="M69 0 54 255H93Q107 161 169.5 106.0Q232 51 322 51Q397 51 443.0 85.5Q489 120 489 175Q489 207 474.5 229.0Q460 251 419.5 272.5Q379 294 301 323Q224 353 173.0 389.0Q122 425 97.0 470.0Q72 515 72 568Q72 631 103.5 678.5Q135 726 190.5 753.0Q246 780 319 780Q418 780 504 716L522 766H546L557 550H518Q494 632 443.0 675.5Q392 719 325 719Q264 719 225.0 688.5Q186 658 186 610Q186 582 199.5 561.5Q213 541 250.0 521.5Q287 502 356 476Q449 441 507.0 402.5Q565 364 591.5 319.5Q618 275 618 219Q618 152 580.0 100.0Q542 48 475.0 19.0Q408 -10 320 -10Q261 -10 212.0 6.5Q163 23 113 60L93 0Z" transform="translate(3710.0952 0)"/><path d="M804.6339869281046 770 815 550H772Q767.8048780487804 616.0819672131147 748.4024390243902 652.5409836065573Q729 689 693.5 703.5Q658 718 604 718Q552.5 718 526.75 715.5Q501 713 493.0 706.24Q485 699.48 485 687V163Q485 120 493.8953488372093 93.5Q502.7906976744186 67 532.0930232558139 54.5Q561.3953488372093 42 620 40V0H201V39.9Q261 42 290.0068493150685 54.5Q319.013698630137 67 328.5068493150685 93.5Q338 120 338 163V687.2413162705667Q338 699 331.0 706.0Q324 713 302.0 715.5Q280 718 235 718Q199 718 166.0 714.1Q133 710.2 108.0 694.6Q83 679 68.03225806451613 644.7522123893805Q53.064516129032256 610.5044247787611 51 550H12L22 770Z" transform="translate(4432.6190 0)"/><path d="M-13 0V40Q35 45 60.0 61.5Q85 78 102 121L365 780H439L678 196Q699 145 714.0 115.5Q729 86 745.0 71.0Q761 56 782.5 50.0Q804 44 838 41V0H460V41Q508 43 529.0 51.0Q550 59 550 83Q550 97 543.0 119.5Q536 142 524 173L501 233H218Q194 179 182.5 143.0Q171 107 171 86Q171 56 193.5 48.0Q216 40 261 40V0ZM241 293H479L364 596H360Z" transform="translate(5319.1429 0)"/><path d="M35 0V39.9Q80 42 102.38095238095238 50.5Q124.76190476190476 59 132.38095238095238 83.0Q140 107 140 154V616.3664717348928Q140 663 133.0 686.5Q126 710 106.0 719.0Q86 728 46 730V770H658L670 559H628Q620 616 601.5 650.0Q583 684 545.516129032258 699.0Q508.0322580645161 714 443 714H305.4166666666667Q287 714 287 697V408Q368 408 411.0 418.0Q454 428 472.0 456.0Q490 484 495 538H532V225H495Q489 267 477.5 292.5Q466 318 444.0 331.5Q422 345 384.0 350.0Q346 355 287 355V161Q287 110 296.9784172661871 84.5Q306.9568345323741 59 338.4676258992806 50.5Q369.9784172661871 42 433 40V0Z" transform="translate(6187.6667 0)"/><path d="M35 0V39.9Q80 42 102.38095238095238 50.5Q124.76190476190476 59 132.38095238095238 83.0Q140 107 140 154V616.3664717348928Q140 663 133.0 686.5Q126 710 106.0 719.0Q86 728 46 730V770H658L670 559H628Q620 616 601.5 650.0Q583 684 545.516129032258 699.0Q508.0322580645161 714 443 714H305.4166666666667Q287 714 287 697V408Q368 408 411.0 418.0Q454 428 472.0 456.0Q490 484 495 538H532V225H495Q489 267 477.5 292.5Q466 318 444.0 331.5Q422 345 384.0 350.0Q346 355 287 355V161Q287 110 296.9784172661871 84.5Q306.9568345323741 59 338.4676258992806 50.5Q369.9784172661871 42 433 40V0Z" transform="translate(6936.1905 0)"/></g>
</svg>
