<svg xmlns="http://www.w3.org/2000/svg" viewBox="0 0 1453 284"
  role="img" aria-labelledby="title">
  <title id="title">Daidala</title>

  <defs>
    <clipPath id="daidala-mark-band" clipPathUnits="userSpaceOnUse">
      <rect x="54" y="173.00" width="288.00"
            height="26.00"/>
    </clipPath>
    <mask id="daidala-mark-opening" maskUnits="userSpaceOnUse" x="0" y="0"
          width="288" height="220">
      <rect width="288" height="220" fill="white"/>
      <path d="M 92 60 H 128 C 164 60 196 82 196 110 C 196 138 164 160 128 160 H 92 Z" fill="black"/>
      <path d="M 76 196 V 178 H 94 V 160 H 112 V 150" fill="none" stroke="black" stroke-width="18"
            stroke-linecap="round" stroke-linejoin="round"/>
    </mask>
  </defs>
  <g transform="translate(54 8) scale(1.0)" mask="url(#daidala-mark-opening)">
    <path d="M 54 24 H 128 C 190 24 234 60 234 110 C 234 160 190 196 128 196 H 54 Z" fill="#ffc72c"/>
  </g>
  <g clip-path="url(#daidala-mark-band)">
    <g transform="translate(54 8) scale(1.0)" mask="url(#daidala-mark-opening)">
      <path d="M 54 24 H 128 C 190 24 234 60 234 110 C 234 160 190 196 128 196 H 54 Z" fill="#f9a23a"/>
    </g>
  </g>
  <defs>
    <clipPath id="daidala-word-band" clipPathUnits="userSpaceOnUse">
      <rect x="386.00" y="173.00" width="1001.43"
            height="26.00"/>
    </clipPath>
  </defs>
  <g transform="translate(390 207) scale(0.16800000 -0.16800000)" fill="#ffc72c"><path d="M35 0V40Q79.06796116504854 42 101.53398058252426 50.5Q124 59 132.0 83.0Q140 107 140 154V616.3664717348928Q140 663 133.73684210526315 686.5Q127.47368421052632 710 108.23684210526315 719.0Q89 728 51 730.1V770H431Q526.9504132231405 770 607.9752066115702 740.5Q689 711 748.2183908045977 657.5Q807.4367816091954 604 840.2183908045977 531.0Q873 458 873 372Q873 290 842.5 222.0Q812 154 755.5502958579882 104.0Q699.1005917159763 54 621.8816568047337 27.0Q544.6627218934912 0 452 0ZM434 61Q564.7137809187279 61 635.356890459364 140.5Q706 220 706 370Q706 476.85820895522386 672.5 552.4291044776119Q639 628 576.8669724770642 668.5Q514.7339449541284 709 429 709H303.7638888888889Q287 709 287 692V175Q287 61 434 61Z" transform="translate(0.0000 0)"/><path d="M-13 0V40Q35 45 60.0 61.5Q85 78 102 121L365 780H439L678 196Q699 145 714.0 115.5Q729 86 745.0 71.0Q761 56 782.5 50.0Q804 44 838 41V0H460V41Q508 43 529.0 51.0Q550 59 550 83Q550 97 543.0 119.5Q536 142 524 173L501 233H218Q194 179 182.5 143.0Q171 107 171 86Q171 56 193.5 48.0Q216 40 261 40V0ZM241 293H479L364 596H360Z" transform="translate(978.5238 0)"/><path d="M36 0V39.9Q81 42 103.38095238095238 52.0Q125.76190476190476 62 133.38095238095238 92.0Q141 122 141 184V586.4924406047517Q141 643 134.35 673.0Q127.7 703 107.275 715.5Q86.85 728 46 730V770H383V730Q342 728 321.5 715.5Q301 703 294.5 673.048Q288 643.096 288 586V184Q288 121.5813953488372 295.5 91.7906976744186Q303 62 325.5 52.0Q348 42 393 40V0Z" transform="translate(1847.0476 0)"/><path d="M35 0V40Q79.06796116504854 42 101.53398058252426 50.5Q124 59 132.0 83.0Q140 107 140 154V616.3664717348928Q140 663 133.73684210526315 686.5Q127.47368421052632 710 108.23684210526315 719.0Q89 728 51 730.1V770H431Q526.9504132231405 770 607.9752066115702 740.5Q689 711 748.2183908045977 657.5Q807.4367816091954 604 840.2183908045977 531.0Q873 458 873 372Q873 290 842.5 222.0Q812 154 755.5502958579882 104.0Q699.1005917159763 54 621.8816568047337 27.0Q544.6627218934912 0 452 0ZM434 61Q564.7137809187279 61 635.356890459364 140.5Q706 220 706 370Q706 476.85820895522386 672.5 552.4291044776119Q639 628 576.8669724770642 668.5Q514.7339449541284 709 429 709H303.7638888888889Q287 709 287 692V175Q287 61 434 61Z" transform="translate(2442.7143 0)"/><path d="M-13 0V40Q35 45 60.0 61.5Q85 78 102 121L365 780H439L678 196Q699 145 714.0 115.5Q729 86 745.0 71.0Q761 56 782.5 50.0Q804 44 838 41V0H460V41Q508 43 529.0 51.0Q550 59 550 83Q550 97 543.0 119.5Q536 142 524 173L501 233H218Q194 179 182.5 143.0Q171 107 171 86Q171 56 193.5 48.0Q216 40 261 40V0ZM241 293H479L364 596H360Z" transform="translate(3421.2381 0)"/><path d="M35 0V39.9Q80 42 102.38095238095238 50.5Q124.76190476190476 59 132.38095238095238 83.0Q140 107 140 154V616.3664717348928Q140 663 133.0 686.5Q126 710 106.0 719.0Q86 728 46 730V770H391V730.0512820512821Q346 729 323.875 719.5Q301.75 710 294.375 685.0Q287 660 287 609V190Q287 134 303.5 105.0Q320 76 359.265306122449 65.5Q398.53061224489795 55 468 55Q545.4610778443114 55 590.7305389221557 69.0Q636 83 660.5 120.0Q685 157 699.8076923076923 227H740L724.0015128593041 0Z" transform="translate(4289.7619 0)"/><path d="M-13 0V40Q35 45 60.0 61.5Q85 78 102 121L365 780H439L678 196Q699 145 714.0 115.5Q729 86 745.0 71.0Q761 56 782.5 50.0Q804 44 838 41V0H460V41Q508 43 529.0 51.0Q550 59 550 83Q550 97 543.0 119.5Q536 142 524 173L501 233H218Q194 179 182.5 143.0Q171 107 171 86Q171 56 193.5 48.0Q216 40 261 40V0ZM241 293H479L364 596H360Z" transform="translate(5104.2857 0)"/></g>
  <g clip-path="url(#daidala-word-band)"><g transform="translate(390 207) scale(0.16800000 -0.16800000)" fill="#f9a23a"><path d="M35 0V40Q79.06796116504854 42 101.53398058252426 50.5Q124 59 132.0 83.0Q140 107 140 154V616.3664717348928Q140 663 133.73684210526315 686.5Q127.47368421052632 710 108.23684210526315 719.0Q89 728 51 730.1V770H431Q526.9504132231405 770 607.9752066115702 740.5Q689 711 748.2183908045977 657.5Q807.4367816091954 604 840.2183908045977 531.0Q873 458 873 372Q873 290 842.5 222.0Q812 154 755.5502958579882 104.0Q699.1005917159763 54 621.8816568047337 27.0Q544.6627218934912 0 452 0ZM434 61Q564.7137809187279 61 635.356890459364 140.5Q706 220 706 370Q706 476.85820895522386 672.5 552.4291044776119Q639 628 576.8669724770642 668.5Q514.7339449541284 709 429 709H303.7638888888889Q287 709 287 692V175Q287 61 434 61Z" transform="translate(0.0000 0)"/><path d="M-13 0V40Q35 45 60.0 61.5Q85 78 102 121L365 780H439L678 196Q699 145 714.0 115.5Q729 86 745.0 71.0Q761 56 782.5 50.0Q804 44 838 41V0H460V41Q508 43 529.0 51.0Q550 59 550 83Q550 97 543.0 119.5Q536 142 524 173L501 233H218Q194 179 182.5 143.0Q171 107 171 86Q171 56 193.5 48.0Q216 40 261 40V0ZM241 293H479L364 596H360Z" transform="translate(978.5238 0)"/><path d="M36 0V39.9Q81 42 103.38095238095238 52.0Q125.76190476190476 62 133.38095238095238 92.0Q141 122 141 184V586.4924406047517Q141 643 134.35 673.0Q127.7 703 107.275 715.5Q86.85 728 46 730V770H383V730Q342 728 321.5 715.5Q301 703 294.5 673.048Q288 643.096 288 586V184Q288 121.5813953488372 295.5 91.7906976744186Q303 62 325.5 52.0Q348 42 393 40V0Z" transform="translate(1847.0476 0)"/><path d="M35 0V40Q79.06796116504854 42 101.53398058252426 50.5Q124 59 132.0 83.0Q140 107 140 154V616.3664717348928Q140 663 133.73684210526315 686.5Q127.47368421052632 710 108.23684210526315 719.0Q89 728 51 730.1V770H431Q526.9504132231405 770 607.9752066115702 740.5Q689 711 748.2183908045977 657.5Q807.4367816091954 604 840.2183908045977 531.0Q873 458 873 372Q873 290 842.5 222.0Q812 154 755.5502958579882 104.0Q699.1005917159763 54 621.8816568047337 27.0Q544.6627218934912 0 452 0ZM434 61Q564.7137809187279 61 635.356890459364 140.5Q706 220 706 370Q706 476.85820895522386 672.5 552.4291044776119Q639 628 576.8669724770642 668.5Q514.7339449541284 709 429 709H303.7638888888889Q287 709 287 692V175Q287 61 434 61Z" transform="translate(2442.7143 0)"/><path d="M-13 0V40Q35 45 60.0 61.5Q85 78 102 121L365 780H439L678 196Q699 145 714.0 115.5Q729 86 745.0 71.0Q761 56 782.5 50.0Q804 44 838 41V0H460V41Q508 43 529.0 51.0Q550 59 550 83Q550 97 543.0 119.5Q536 142 524 173L501 233H218Q194 179 182.5 143.0Q171 107 171 86Q171 56 193.5 48.0Q216 40 261 40V0ZM241 293H479L364 596H360Z" transform="translate(3421.2381 0)"/><path d="M35 0V39.9Q80 42 102.38095238095238 50.5Q124.76190476190476 59 132.38095238095238 83.0Q140 107 140 154V616.3664717348928Q140 663 133.0 686.5Q126 710 106.0 719.0Q86 728 46 730V770H391V730.0512820512821Q346 729 323.875 719.5Q301.75 710 294.375 685.0Q287 660 287 609V190Q287 134 303.5 105.0Q320 76 359.265306122449 65.5Q398.53061224489795 55 468 55Q545.4610778443114 55 590.7305389221557 69.0Q636 83 660.5 120.0Q685 157 699.8076923076923 227H740L724.0015128593041 0Z" transform="translate(4289.7619 0)"/><path d="M-13 0V40Q35 45 60.0 61.5Q85 78 102 121L365 780H439L678 196Q699 145 714.0 115.5Q729 86 745.0 71.0Q761 56 782.5 50.0Q804 44 838 41V0H460V41Q508 43 529.0 51.0Q550 59 550 83Q550 97 543.0 119.5Q536 142 524 173L501 233H218Q194 179 182.5 143.0Q171 107 171 86Q171 56 193.5 48.0Q216 40 261 40V0ZM241 293H479L364 596H360Z" transform="translate(5104.2857 0)"/></g></g>
</svg>
