<svg xmlns="http://www.w3.org/2000/svg" viewBox="0 0 1200 630"
  role="img" aria-labelledby="title description">
  <title id="title">Daidala — Hermes-native AI workshop</title>
  <desc id="description">Your daily driver for crafted, human-approved work. Specialist agents and skills. define → plan → approve → implement → verify → review → deliver. Disciplined craft · no second orchestration server.</desc>
  <rect width="1200" height="630" fill="#1a1f3a"/>

  <defs>
    <clipPath id="social-mark-band" clipPathUnits="userSpaceOnUse">
      <rect x="54" y="160.40" width="207.36"
            height="18.72"/>
    </clipPath>
    <mask id="social-mark-opening" maskUnits="userSpaceOnUse" x="0" y="0"
          width="288" height="220">
      <rect width="288" height="220" fill="white"/>
      <path d="M 92 60 H 128 C 164 60 196 82 196 110 C 196 138 164 160 128 160 H 92 Z" fill="black"/>
      <path d="M 76 196 V 178 H 94 V 160 H 112 V 150" fill="none" stroke="black" stroke-width="18"
            stroke-linecap="round" stroke-linejoin="round"/>
    </mask>
  </defs>
  <g transform="translate(54 42) scale(0.72)" mask="url(#social-mark-opening)">
    <path d="M 54 24 H 128 C 190 24 234 60 234 110 C 234 160 190 196 128 196 H 54 Z" fill="#ffc72c"/>
  </g>
  <g clip-path="url(#social-mark-band)">
    <g transform="translate(54 42) scale(0.72)" mask="url(#social-mark-opening)">
      <path d="M 54 24 H 128 C 190 24 234 60 234 110 C 234 160 190 196 128 196 H 54 Z" fill="#f9a23a"/>
    </g>
  </g>
  <defs>
    <clipPath id="social-word-band" clipPathUnits="userSpaceOnUse">
      <rect x="296.00" y="160.40" width="670.29"
            height="18.72"/>
    </clipPath>
  </defs>
  <g transform="translate(300 190) scale(0.11200000 -0.11200000)" fill="#ffc72c"><path d="M35 0V40Q79.06796116504854 42 101.53398058252426 50.5Q124 59 132.0 83.0Q140 107 140 154V616.3664717348928Q140 663 133.73684210526315 686.5Q127.47368421052632 710 108.23684210526315 719.0Q89 728 51 730.1V770H431Q526.9504132231405 770 607.9752066115702 740.5Q689 711 748.2183908045977 657.5Q807.4367816091954 604 840.2183908045977 531.0Q873 458 873 372Q873 290 842.5 222.0Q812 154 755.5502958579882 104.0Q699.1005917159763 54 621.8816568047337 27.0Q544.6627218934912 0 452 0ZM434 61Q564.7137809187279 61 635.356890459364 140.5Q706 220 706 370Q706 476.85820895522386 672.5 552.4291044776119Q639 628 576.8669724770642 668.5Q514.7339449541284 709 429 709H303.7638888888889Q287 709 287 692V175Q287 61 434 61Z" transform="translate(0.0000 0)"/><path d="M-13 0V40Q35 45 60.0 61.5Q85 78 102 121L365 780H439L678 196Q699 145 714.0 115.5Q729 86 745.0 71.0Q761 56 782.5 50.0Q804 44 838 41V0H460V41Q508 43 529.0 51.0Q550 59 550 83Q550 97 543.0 119.5Q536 142 524 173L501 233H218Q194 179 182.5 143.0Q171 107 171 86Q171 56 193.5 48.0Q216 40 261 40V0ZM241 293H479L364 596H360Z" transform="translate(978.5238 0)"/><path d="M36 0V39.9Q81 42 103.38095238095238 52.0Q125.76190476190476 62 133.38095238095238 92.0Q141 122 141 184V586.4924406047517Q141 643 134.35 673.0Q127.7 703 107.275 715.5Q86.85 728 46 730V770H383V730Q342 728 321.5 715.5Q301 703 294.5 673.048Q288 643.096 288 586V184Q288 121.5813953488372 295.5 91.7906976744186Q303 62 325.5 52.0Q348 42 393 40V0Z" transform="translate(1847.0476 0)"/><path d="M35 0V40Q79.06796116504854 42 101.53398058252426 50.5Q124 59 132.0 83.0Q140 107 140 154V616.3664717348928Q140 663 133.73684210526315 686.5Q127.47368421052632 710 108.23684210526315 719.0Q89 728 51 730.1V770H431Q526.9504132231405 770 607.9752066115702 740.5Q689 711 748.2183908045977 657.5Q807.4367816091954 604 840.2183908045977 531.0Q873 458 873 372Q873 290 842.5 222.0Q812 154 755.5502958579882 104.0Q699.1005917159763 54 621.8816568047337 27.0Q544.6627218934912 0 452 0ZM434 61Q564.7137809187279 61 635.356890459364 140.5Q706 220 706 370Q706 476.85820895522386 672.5 552.4291044776119Q639 628 576.8669724770642 668.5Q514.7339449541284 709 429 709H303.7638888888889Q287 709 287 692V175Q287 61 434 61Z" transform="translate(2442.7143 0)"/><path d="M-13 0V40Q35 45 60.0 61.5Q85 78 102 121L365 780H439L678 196Q699 145 714.0 115.5Q729 86 745.0 71.0Q761 56 782.5 50.0Q804 44 838 41V0H460V41Q508 43 529.0 51.0Q550 59 550 83Q550 97 543.0 119.5Q536 142 524 173L501 233H218Q194 179 182.5 143.0Q171 107 171 86Q171 56 193.5 48.0Q216 40 261 40V0ZM241 293H479L364 596H360Z" transform="translate(3421.2381 0)"/><path d="M35 0V39.9Q80 42 102.38095238095238 50.5Q124.76190476190476 59 132.38095238095238 83.0Q140 107 140 154V616.3664717348928Q140 663 133.0 686.5Q126 710 106.0 719.0Q86 728 46 730V770H391V730.0512820512821Q346 729 323.875 719.5Q301.75 710 294.375 685.0Q287 660 287 609V190Q287 134 303.5 105.0Q320 76 359.265306122449 65.5Q398.53061224489795 55 468 55Q545.4610778443114 55 590.7305389221557 69.0Q636 83 660.5 120.0Q685 157 699.8076923076923 227H740L724.0015128593041 0Z" transform="translate(4289.7619 0)"/><path d="M-13 0V40Q35 45 60.0 61.5Q85 78 102 121L365 780H439L678 196Q699 145 714.0 115.5Q729 86 745.0 71.0Q761 56 782.5 50.0Q804 44 838 41V0H460V41Q508 43 529.0 51.0Q550 59 550 83Q550 97 543.0 119.5Q536 142 524 173L501 233H218Q194 179 182.5 143.0Q171 107 171 86Q171 56 193.5 48.0Q216 40 261 40V0ZM241 293H479L364 596H360Z" transform="translate(5104.2857 0)"/></g>
  <g clip-path="url(#social-word-band)"><g transform="translate(300 190) scale(0.11200000 -0.11200000)" fill="#f9a23a"><path d="M35 0V40Q79.06796116504854 42 101.53398058252426 50.5Q124 59 132.0 83.0Q140 107 140 154V616.3664717348928Q140 663 133.73684210526315 686.5Q127.47368421052632 710 108.23684210526315 719.0Q89 728 51 730.1V770H431Q526.9504132231405 770 607.9752066115702 740.5Q689 711 748.2183908045977 657.5Q807.4367816091954 604 840.2183908045977 531.0Q873 458 873 372Q873 290 842.5 222.0Q812 154 755.5502958579882 104.0Q699.1005917159763 54 621.8816568047337 27.0Q544.6627218934912 0 452 0ZM434 61Q564.7137809187279 61 635.356890459364 140.5Q706 220 706 370Q706 476.85820895522386 672.5 552.4291044776119Q639 628 576.8669724770642 668.5Q514.7339449541284 709 429 709H303.7638888888889Q287 709 287 692V175Q287 61 434 61Z" transform="translate(0.0000 0)"/><path d="M-13 0V40Q35 45 60.0 61.5Q85 78 102 121L365 780H439L678 196Q699 145 714.0 115.5Q729 86 745.0 71.0Q761 56 782.5 50.0Q804 44 838 41V0H460V41Q508 43 529.0 51.0Q550 59 550 83Q550 97 543.0 119.5Q536 142 524 173L501 233H218Q194 179 182.5 143.0Q171 107 171 86Q171 56 193.5 48.0Q216 40 261 40V0ZM241 293H479L364 596H360Z" transform="translate(978.5238 0)"/><path d="M36 0V39.9Q81 42 103.38095238095238 52.0Q125.76190476190476 62 133.38095238095238 92.0Q141 122 141 184V586.4924406047517Q141 643 134.35 673.0Q127.7 703 107.275 715.5Q86.85 728 46 730V770H383V730Q342 728 321.5 715.5Q301 703 294.5 673.048Q288 643.096 288 586V184Q288 121.5813953488372 295.5 91.7906976744186Q303 62 325.5 52.0Q348 42 393 40V0Z" transform="translate(1847.0476 0)"/><path d="M35 0V40Q79.06796116504854 42 101.53398058252426 50.5Q124 59 132.0 83.0Q140 107 140 154V616.3664717348928Q140 663 133.73684210526315 686.5Q127.47368421052632 710 108.23684210526315 719.0Q89 728 51 730.1V770H431Q526.9504132231405 770 607.9752066115702 740.5Q689 711 748.2183908045977 657.5Q807.4367816091954 604 840.2183908045977 531.0Q873 458 873 372Q873 290 842.5 222.0Q812 154 755.5502958579882 104.0Q699.1005917159763 54 621.8816568047337 27.0Q544.6627218934912 0 452 0ZM434 61Q564.7137809187279 61 635.356890459364 140.5Q706 220 706 370Q706 476.85820895522386 672.5 552.4291044776119Q639 628 576.8669724770642 668.5Q514.7339449541284 709 429 709H303.7638888888889Q287 709 287 692V175Q287 61 434 61Z" transform="translate(2442.7143 0)"/><path d="M-13 0V40Q35 45 60.0 61.5Q85 78 102 121L365 780H439L678 196Q699 145 714.0 115.5Q729 86 745.0 71.0Q761 56 782.5 50.0Q804 44 838 41V0H460V41Q508 43 529.0 51.0Q550 59 550 83Q550 97 543.0 119.5Q536 142 524 173L501 233H218Q194 179 182.5 143.0Q171 107 171 86Q171 56 193.5 48.0Q216 40 261 40V0ZM241 293H479L364 596H360Z" transform="translate(3421.2381 0)"/><path d="M35 0V39.9Q80 42 102.38095238095238 50.5Q124.76190476190476 59 132.38095238095238 83.0Q140 107 140 154V616.3664717348928Q140 663 133.0 686.5Q126 710 106.0 719.0Q86 728 46 730V770H391V730.0512820512821Q346 729 323.875 719.5Q301.75 710 294.375 685.0Q287 660 287 609V190Q287 134 303.5 105.0Q320 76 359.265306122449 65.5Q398.53061224489795 55 468 55Q545.4610778443114 55 590.7305389221557 69.0Q636 83 660.5 120.0Q685 157 699.8076923076923 227H740L724.0015128593041 0Z" transform="translate(4289.7619 0)"/><path d="M-13 0V40Q35 45 60.0 61.5Q85 78 102 121L365 780H439L678 196Q699 145 714.0 115.5Q729 86 745.0 71.0Q761 56 782.5 50.0Q804 44 838 41V0H460V41Q508 43 529.0 51.0Q550 59 550 83Q550 97 543.0 119.5Q536 142 524 173L501 233H218Q194 179 182.5 143.0Q171 107 171 86Q171 56 193.5 48.0Q216 40 261 40V0ZM241 293H479L364 596H360Z" transform="translate(5104.2857 0)"/></g></g>
  <rect x="78" y="248" width="1044" height="3" fill="#f9a23a"/>
  <g transform="translate(78 310) scale(0.03000000 -0.03000000)" fill="#f6efdb"><path d="M203 0V40Q245 40 267.5 50.0Q290 60 299.0 90.5Q308 121 308 184V276L101 644Q81 679 65.0 697.5Q49 716 30.5 723.0Q12 730 -14 730V770H322V730Q280 730 263.0 722.0Q246 714 246 698Q246 688 252.0 674.0Q258 660 271 636L414 363H418L544 573Q577 629 590.0 656.5Q603 684 603 700Q603 717 587.5 723.5Q572 730 530 730V770H781V730Q759 730 741.0 722.5Q723 715 704.0 695.5Q685 676 660.5 639.0Q636 602 601 543L455 293V191Q455 124 463.5 92.0Q472 60 494.5 50.0Q517 40 559 40V0Z" transform="translate(0.0000 0)"/><path d="M328.0988023952096 540Q388 540 441.0 520.0Q494 500 535.0 463.5Q576 427 599.5 377.5Q623 328 623 269Q623 208 599.5 157.0Q576 106 535.0 68.5Q494 31 440.7547169811321 10.5Q387.50943396226415 -10 328 -10Q269.1696750902527 -10 216.64259927797835 10.5Q164.11552346570397 31 123.66967509025271 68.5Q83.22382671480145 106 60.111913357400724 157.0Q37 208 37 269Q37 348 76.93413173652695 409.0Q116.86826347305389 470 183.0748502994012 505.0Q249.2814371257485 540 328.0988023952096 540ZM328.32 482Q288 482 257.5 455.0Q227 428 210.5 379.9047619047619Q194 331.8095238095238 194 268Q194 169 230.37551867219918 110.0Q266.75103734439836 51 328.05809128630705 51Q391 51 428.5 110.25850340136054Q466 169.51700680272108 466 267.9625850340136Q466 332 449.0 380.0Q432 428 401.1428571428571 455.0Q370.2857142857143 482 328.32 482Z" transform="translate(760.0000 0)"/><path d="M465 262V366Q465 420 460.0 445.0Q455 470 437.0 478.0Q419 486 378 490V530H604V227Q604 166 605.5 131.5Q607 97 611 80Q616 55 631.5 47.5Q647 40 696 40V1L497 -11L486 78H482Q457 37 409.5 13.5Q362 -10 304 -10Q252 -10 210.5 9.5Q169 29 141 66Q98 124 98 231V366Q98 407 96.0 430.5Q94 454 85.5 465.5Q77 477 60.0 482.0Q43 487 13 490V530H237V247Q237 147 262.0 101.0Q287 55 342 55Q402 55 433 109Q450 136 457.5 173.0Q465 210 465 262Z" transform="translate(1420.0000 0)"/><path d="M258 203V155Q258 104 265.0 79.5Q272 55 295.0 48.0Q318 41 364 40V0H30V40Q71 43 89.5 51.0Q108 59 113.5 83.0Q119 107 119 157V279Q119 341 115.5 378.5Q112 416 102.5 435.5Q93 455 74.5 461.5Q56 468 26 468V503L226 540L242 425H246Q273 478 317.0 509.0Q361 540 410 540Q448 540 472.0 521.0Q496 502 496 473Q496 441 477.5 419.0Q459 397 427 397Q407 397 392.5 407.0Q378 417 366.0 427.0Q354 437 340 437Q321 437 304.0 412.0Q287 387 276 345Q268 315 263.0 277.5Q258 240 258 203Z" transform="translate(2129.0000 0)"/><path d="M298 -10Q222 -10 163.5 24.5Q105 59 72.0 120.5Q39 182 39 261Q39 341 72.0 404.0Q105 467 162.5 503.5Q220 540 292 540Q342 540 381.0 525.0Q420 510 448 474H452V559Q452 618 450.5 660.5Q449 703 446 716Q442 737 416.0 746.5Q390 756 337 756V790L590 830V258Q590 184 591.5 143.0Q593 102 597 81Q602 55 615.0 47.5Q628 40 671 40V1L481 -10V64H477Q443 27 397.5 8.5Q352 -10 298 -10ZM450 248V287Q450 325 442.0 357.5Q434 390 418 415Q400 444 372.0 459.0Q344 474 312 474Q254 474 222.5 419.5Q191 365 191 263Q191 160 222.0 103.5Q253 47 311 47Q344 47 374.0 64.0Q404 81 423 110Q437 132 443.5 164.5Q450 197 450 248Z" transform="translate(2893.0000 0)"/><path d="M453 -10Q407 -10 382.5 17.5Q358 45 358 97H353Q326 47 279.0 19.0Q232 -9 176 -9Q130 -9 98.0 8.5Q66 26 50.0 54.0Q34 82 34 114Q34 163 74.5 201.5Q115 240 204 278L344 338V380Q344 437 323.5 464.0Q303 491 261 491Q232 491 217.0 476.5Q202 462 188 424Q180 401 163.0 386.0Q146 371 118 371Q90 371 74.5 387.5Q59 404 59 432Q59 483 112.0 511.5Q165 540 268 540Q382 540 430.0 500.0Q478 460 478 364V145Q478 101 486.5 80.5Q495 60 514 60Q522 60 530.5 63.0Q539 66 547 73L562 44Q549 20 519.0 5.0Q489 -10 453 -10ZM238 84Q266 84 290.0 98.0Q314 112 329.0 136.5Q344 161 344 190V285Q281 255 244.0 232.0Q207 209 191.0 188.0Q175 167 175 143Q175 116 192.0 100.0Q209 84 238 84Z" transform="translate(3587.0000 0)"/><path d="M257 540V164Q257 111 262.5 85.0Q268 59 287.24050632911394 50.45Q306.4810126582278 41.9 344 40V0H29V39.729729729729726Q67 42 86.0090909090909 51.5Q105.01818181818182 61 111.5090909090909 85.5Q118 110 118 157V280Q118 338 116.0 376.0Q114 414 111 427Q106 452 88.5 460.0Q71 468 25 468V502ZM110 752.5Q110 785 132.5 807.5Q155 830 187.5 830Q220 830 242.5 807.5Q265 785 265 752.5Q265 720 242.5 697.5Q220 675 187.5 675Q155 675 132.5 697.5Q110 720 110 752.5Z" transform="translate(4161.0000 0)"/><path d="M247 830V164Q247 111 252.5 85.0Q258 59 277.0 50.5Q296 42 334 40V0H19V40Q57 42 76.0 51.5Q95 61 101.5 85.5Q108 110 108 157V570Q108 628 106.0 666.0Q104 704 101 717Q96 742 78.5 750.0Q61 758 15 758V792Z" transform="translate(4522.0000 0)"/><path d="M516 323 287 -157Q266 -201 223.0 -230.5Q180 -260 136 -260Q103 -260 83.0 -244.0Q63 -228 63 -201Q63 -176 80.5 -162.0Q98 -148 137 -145Q183 -141 211.0 -127.0Q239 -113 252 -89L279 -37L102 401Q87 440 75.5 458.5Q64 477 49.0 483.0Q34 489 8 490V530H311V490Q272 490 256.5 482.5Q241 475 241 455Q241 448 243.5 437.0Q246 426 250 415L352 123H356L442 318Q460 360 469.5 383.5Q479 407 482.5 421.0Q486 435 486 446Q486 472 471.5 481.0Q457 490 413 490V530H654V490Q635 490 620.5 484.5Q606 479 592.0 462.0Q578 445 560.0 412.0Q542 379 516 323Z" transform="translate(4877.0000 0)"/><path d="M298 -10Q222 -10 163.5 24.5Q105 59 72.0 120.5Q39 182 39 261Q39 341 72.0 404.0Q105 467 162.5 503.5Q220 540 292 540Q342 540 381.0 525.0Q420 510 448 474H452V559Q452 618 450.5 660.5Q449 703 446 716Q442 737 416.0 746.5Q390 756 337 756V790L590 830V258Q590 184 591.5 143.0Q593 102 597 81Q602 55 615.0 47.5Q628 40 671 40V1L481 -10V64H477Q443 27 397.5 8.5Q352 -10 298 -10ZM450 248V287Q450 325 442.0 357.5Q434 390 418 415Q400 444 372.0 459.0Q344 474 312 474Q254 474 222.5 419.5Q191 365 191 263Q191 160 222.0 103.5Q253 47 311 47Q344 47 374.0 64.0Q404 81 423 110Q437 132 443.5 164.5Q450 197 450 248Z" transform="translate(5789.0000 0)"/><path d="M258 203V155Q258 104 265.0 79.5Q272 55 295.0 48.0Q318 41 364 40V0H30V40Q71 43 89.5 51.0Q108 59 113.5 83.0Q119 107 119 157V279Q119 341 115.5 378.5Q112 416 102.5 435.5Q93 455 74.5 461.5Q56 468 26 468V503L226 540L242 425H246Q273 478 317.0 509.0Q361 540 410 540Q448 540 472.0 521.0Q496 502 496 473Q496 441 477.5 419.0Q459 397 427 397Q407 397 392.5 407.0Q378 417 366.0 427.0Q354 437 340 437Q321 437 304.0 412.0Q287 387 276 345Q268 315 263.0 277.5Q258 240 258 203Z" transform="translate(6483.0000 0)"/><path d="M257 540V164Q257 111 262.5 85.0Q268 59 287.24050632911394 50.45Q306.4810126582278 41.9 344 40V0H29V39.729729729729726Q67 42 86.0090909090909 51.5Q105.01818181818182 61 111.5090909090909 85.5Q118 110 118 157V280Q118 338 116.0 376.0Q114 414 111 427Q106 452 88.5 460.0Q71 468 25 468V502ZM110 752.5Q110 785 132.5 807.5Q155 830 187.5 830Q220 830 242.5 807.5Q265 785 265 752.5Q265 720 242.5 697.5Q220 675 187.5 675Q155 675 132.5 697.5Q110 720 110 752.5Z" transform="translate(6981.0000 0)"/><path d="M259 -10 101 401Q86 440 73.5 459.0Q61 478 45.5 484.0Q30 490 7 490V530H306V490Q273 490 257.5 486.5Q242 483 237.5 475.5Q233 468 233 457Q233 444 238.0 427.0Q243 410 250 393L345 131H349L456 392Q463 409 467.0 422.5Q471 436 471 447Q471 469 456.0 479.0Q441 489 403 490V530H624V490Q610 490 597.5 486.5Q585 483 574 473Q568 468 562.0 459.5Q556 451 550.0 440.0Q544 429 537 414L350 -10Z" transform="translate(7342.0000 0)"/><path d="M512 128 540 93Q449 -10 313 -10Q231 -10 169.0 24.0Q107 58 72.5 118.5Q38 179 38 258Q38 341 74.5 404.5Q111 468 176.0 504.0Q241 540 325 540Q431 540 490.0 482.5Q549 425 549 323Q549 307 544.0 303.5Q539 300 516 300H194Q192 295 191.0 287.0Q190 279 190 267Q190 202 209.5 154.5Q229 107 264.5 81.0Q300 55 348 55Q390 55 431.5 74.0Q473 93 512 128ZM201 356H346Q387 356 398.0 360.5Q409 365 409 382Q409 426 384.0 454.0Q359 482 321 482Q278 482 244.5 446.5Q211 411 201 356Z" transform="translate(7966.0000 0)"/><path d="M258 203V155Q258 104 265.0 79.5Q272 55 295.0 48.0Q318 41 364 40V0H30V40Q71 43 89.5 51.0Q108 59 113.5 83.0Q119 107 119 157V279Q119 341 115.5 378.5Q112 416 102.5 435.5Q93 455 74.5 461.5Q56 468 26 468V503L226 540L242 425H246Q273 478 317.0 509.0Q361 540 410 540Q448 540 472.0 521.0Q496 502 496 473Q496 441 477.5 419.0Q459 397 427 397Q407 397 392.5 407.0Q378 417 366.0 427.0Q354 437 340 437Q321 437 304.0 412.0Q287 387 276 345Q268 315 263.0 277.5Q258 240 258 203Z" transform="translate(8551.0000 0)"/><path d="M35 0V40Q75 42 94.0 50.5Q113 59 119.0 83.5Q125 108 125 158V475H17V530H125V586Q125 659 157.0 713.5Q189 768 246.0 799.0Q303 830 378 830Q446 830 490.0 806.0Q534 782 534 745Q534 723 517.0 707.5Q500 692 474 692Q449 692 437.0 708.0Q425 724 402 748Q385 766 374.0 770.0Q363 774 355 774Q336 774 317.0 764.5Q298 755 285 735Q272 715 268.0 684.0Q264 653 264 602V530H433V475H264V166Q264 116 273.0 89.0Q282 62 305.5 51.5Q329 41 373 40V0Z" transform="translate(9315.0000 0)"/><path d="M328.0988023952096 540Q388 540 441.0 520.0Q494 500 535.0 463.5Q576 427 599.5 377.5Q623 328 623 269Q623 208 599.5 157.0Q576 106 535.0 68.5Q494 31 440.7547169811321 10.5Q387.50943396226415 -10 328 -10Q269.1696750902527 -10 216.64259927797835 10.5Q164.11552346570397 31 123.66967509025271 68.5Q83.22382671480145 106 60.111913357400724 157.0Q37 208 37 269Q37 348 76.93413173652695 409.0Q116.86826347305389 470 183.0748502994012 505.0Q249.2814371257485 540 328.0988023952096 540ZM328.32 482Q288 482 257.5 455.0Q227 428 210.5 379.9047619047619Q194 331.8095238095238 194 268Q194 169 230.37551867219918 110.0Q266.75103734439836 51 328.05809128630705 51Q391 51 428.5 110.25850340136054Q466 169.51700680272108 466 267.9625850340136Q466 332 449.0 380.0Q432 428 401.1428571428571 455.0Q370.2857142857143 482 328.32 482Z" transform="translate(9758.0000 0)"/><path d="M258 203V155Q258 104 265.0 79.5Q272 55 295.0 48.0Q318 41 364 40V0H30V40Q71 43 89.5 51.0Q108 59 113.5 83.0Q119 107 119 157V279Q119 341 115.5 378.5Q112 416 102.5 435.5Q93 455 74.5 461.5Q56 468 26 468V503L226 540L242 425H246Q273 478 317.0 509.0Q361 540 410 540Q448 540 472.0 521.0Q496 502 496 473Q496 441 477.5 419.0Q459 397 427 397Q407 397 392.5 407.0Q378 417 366.0 427.0Q354 437 340 437Q321 437 304.0 412.0Q287 387 276 345Q268 315 263.0 277.5Q258 240 258 203Z" transform="translate(10418.0000 0)"/></g><g transform="translate(78 358) scale(0.03000000 -0.03000000)" fill="#f6efdb"><path d="M502 121 528 83Q491 39 434.0 14.5Q377 -10 310 -10Q229 -10 168.0 24.5Q107 59 73.0 120.5Q39 182 39 262Q39 346 75.5 408.5Q112 471 177.0 505.5Q242 540 329 540Q388 540 435.0 524.5Q482 509 509.0 482.0Q536 455 536 420Q536 394 520.0 376.5Q504 359 474 359Q446 359 430.5 373.5Q415 388 400 410Q382 437 370.5 452.5Q359 468 348.0 475.0Q337 482 317 482Q258 482 225.5 429.0Q193 376 193 278Q193 172 231.5 114.0Q270 56 343 56Q383 56 424.0 73.0Q465 90 502 121Z" transform="translate(0.0000 0)"/><path d="M258 203V155Q258 104 265.0 79.5Q272 55 295.0 48.0Q318 41 364 40V0H30V40Q71 43 89.5 51.0Q108 59 113.5 83.0Q119 107 119 157V279Q119 341 115.5 378.5Q112 416 102.5 435.5Q93 455 74.5 461.5Q56 468 26 468V503L226 540L242 425H246Q273 478 317.0 509.0Q361 540 410 540Q448 540 472.0 521.0Q496 502 496 473Q496 441 477.5 419.0Q459 397 427 397Q407 397 392.5 407.0Q378 417 366.0 427.0Q354 437 340 437Q321 437 304.0 412.0Q287 387 276 345Q268 315 263.0 277.5Q258 240 258 203Z" transform="translate(564.0000 0)"/><path d="M453 -10Q407 -10 382.5 17.5Q358 45 358 97H353Q326 47 279.0 19.0Q232 -9 176 -9Q130 -9 98.0 8.5Q66 26 50.0 54.0Q34 82 34 114Q34 163 74.5 201.5Q115 240 204 278L344 338V380Q344 437 323.5 464.0Q303 491 261 491Q232 491 217.0 476.5Q202 462 188 424Q180 401 163.0 386.0Q146 371 118 371Q90 371 74.5 387.5Q59 404 59 432Q59 483 112.0 511.5Q165 540 268 540Q382 540 430.0 500.0Q478 460 478 364V145Q478 101 486.5 80.5Q495 60 514 60Q522 60 530.5 63.0Q539 66 547 73L562 44Q549 20 519.0 5.0Q489 -10 453 -10ZM238 84Q266 84 290.0 98.0Q314 112 329.0 136.5Q344 161 344 190V285Q281 255 244.0 232.0Q207 209 191.0 188.0Q175 167 175 143Q175 116 192.0 100.0Q209 84 238 84Z" transform="translate(1062.0000 0)"/><path d="M35 0V40Q75 42 94.0 50.5Q113 59 119.0 83.5Q125 108 125 158V475H17V530H125V586Q125 659 157.0 713.5Q189 768 246.0 799.0Q303 830 378 830Q446 830 490.0 806.0Q534 782 534 745Q534 723 517.0 707.5Q500 692 474 692Q449 692 437.0 708.0Q425 724 402 748Q385 766 374.0 770.0Q363 774 355 774Q336 774 317.0 764.5Q298 755 285 735Q272 715 268.0 684.0Q264 653 264 602V530H433V475H264V166Q264 116 273.0 89.0Q282 62 305.5 51.5Q329 41 373 40V0Z" transform="translate(1636.0000 0)"/><path d="M98 475H25V520Q84 537 125.0 572.0Q166 607 186 651H237V530H352V475H237V168Q237 107 251.0 80.5Q265 54 296 54Q316 54 330.5 62.5Q345 71 355 90L376 61Q348 -10 244 -10Q175 -10 136.5 22.0Q98 54 98 112Z" transform="translate(2079.0000 0)"/><path d="M512 128 540 93Q449 -10 313 -10Q231 -10 169.0 24.0Q107 58 72.5 118.5Q38 179 38 258Q38 341 74.5 404.5Q111 468 176.0 504.0Q241 540 325 540Q431 540 490.0 482.5Q549 425 549 323Q549 307 544.0 303.5Q539 300 516 300H194Q192 295 191.0 287.0Q190 279 190 267Q190 202 209.5 154.5Q229 107 264.5 81.0Q300 55 348 55Q390 55 431.5 74.0Q473 93 512 128ZM201 356H346Q387 356 398.0 360.5Q409 365 409 382Q409 426 384.0 454.0Q359 482 321 482Q278 482 244.5 446.5Q211 411 201 356Z" transform="translate(2461.0000 0)"/><path d="M298 -10Q222 -10 163.5 24.5Q105 59 72.0 120.5Q39 182 39 261Q39 341 72.0 404.0Q105 467 162.5 503.5Q220 540 292 540Q342 540 381.0 525.0Q420 510 448 474H452V559Q452 618 450.5 660.5Q449 703 446 716Q442 737 416.0 746.5Q390 756 337 756V790L590 830V258Q590 184 591.5 143.0Q593 102 597 81Q602 55 615.0 47.5Q628 40 671 40V1L481 -10V64H477Q443 27 397.5 8.5Q352 -10 298 -10ZM450 248V287Q450 325 442.0 357.5Q434 390 418 415Q400 444 372.0 459.0Q344 474 312 474Q254 474 222.5 419.5Q191 365 191 263Q191 160 222.0 103.5Q253 47 311 47Q344 47 374.0 64.0Q404 81 423 110Q437 132 443.5 164.5Q450 197 450 248Z" transform="translate(3046.0000 0)"/><path d="M59 -155 30 -113Q84 -77 109.5 -48.0Q135 -19 135 8Q130 5 121.5 2.5Q113 0 105 0Q84 0 69.0 19.0Q54 38 54 64Q54 97 76.0 119.0Q98 141 129 141Q164 141 185.0 116.0Q206 91 206 48Q206 12 190.0 -22.0Q174 -56 141.5 -89.0Q109 -122 59 -155Z" transform="translate(3740.0000 0)"/><path d="M244 297V164Q244 110 249.0 84.5Q254 59 272.5 51.0Q291 43 331 40V0H16V40Q57 43 75.5 51.0Q94 59 99.5 83.0Q105 107 105 157V568Q105 681 98 716Q93 742 77.0 748.5Q61 755 19 755V792L242 830V461H246Q277 502 315.5 521.0Q354 540 409 540Q459 540 497.5 524.5Q536 509 563 477Q589 446 602.5 404.5Q616 363 616 319V164Q616 109 621.0 83.5Q626 58 644.0 50.5Q662 43 701 40V0H388V40Q428 42 447.0 50.0Q466 58 471.5 82.5Q477 107 477 157V280Q477 387 454.0 430.5Q431 474 375 474Q344 474 321.0 463.0Q298 452 281 431Q262 407 253.0 372.5Q244 338 244 297Z" transform="translate(4268.0000 0)"/><path d="M465 262V366Q465 420 460.0 445.0Q455 470 437.0 478.0Q419 486 378 490V530H604V227Q604 166 605.5 131.5Q607 97 611 80Q616 55 631.5 47.5Q647 40 696 40V1L497 -11L486 78H482Q457 37 409.5 13.5Q362 -10 304 -10Q252 -10 210.5 9.5Q169 29 141 66Q98 124 98 231V366Q98 407 96.0 430.5Q94 454 85.5 465.5Q77 477 60.0 482.0Q43 487 13 490V530H237V247Q237 147 262.0 101.0Q287 55 342 55Q402 55 433 109Q450 136 457.5 173.0Q465 210 465 262Z" transform="translate(4982.0000 0)"/><path d="M258 297V165Q258 110 263.0 84.0Q268 58 286.0 50.5Q304 43 344 40V0H28V40Q68 43 87.0 51.0Q106 59 112.0 83.0Q118 107 118 157V281Q118 338 116.5 376.5Q115 415 111 428Q105 454 89.5 461.0Q74 468 26 468V502L219 540L231 453H237Q279 500 322.0 520.0Q365 540 420 540Q486 540 529.0 517.0Q572 494 594 451H598Q634 493 684.5 516.5Q735 540 791 540Q850 540 895.0 525.0Q940 510 965 482Q985 460 994.5 422.0Q1004 384 1004 319V165Q1004 110 1009.5 84.5Q1015 59 1033.5 51.0Q1052 43 1091 40V0H775V40Q815 42 834.0 50.0Q853 58 858.5 82.5Q864 107 864 157V288Q864 392 839.0 433.5Q814 475 752 475Q717 475 694.5 458.0Q672 441 657 414Q649 399 643.0 380.0Q637 361 634.0 340.5Q631 320 631 297V165Q631 110 636.0 84.5Q641 59 659.5 51.0Q678 43 719 40V0H402V40Q442 43 461.0 51.0Q480 59 485.5 83.0Q491 107 491 157V288Q491 358 480.0 399.0Q469 440 444.0 457.5Q419 475 375 475Q342 475 320.5 459.0Q299 443 285 416Q277 400 270.5 381.0Q264 362 261.0 340.5Q258 319 258 297Z" transform="translate(5691.0000 0)"/><path d="M453 -10Q407 -10 382.5 17.5Q358 45 358 97H353Q326 47 279.0 19.0Q232 -9 176 -9Q130 -9 98.0 8.5Q66 26 50.0 54.0Q34 82 34 114Q34 163 74.5 201.5Q115 240 204 278L344 338V380Q344 437 323.5 464.0Q303 491 261 491Q232 491 217.0 476.5Q202 462 188 424Q180 401 163.0 386.0Q146 371 118 371Q90 371 74.5 387.5Q59 404 59 432Q59 483 112.0 511.5Q165 540 268 540Q382 540 430.0 500.0Q478 460 478 364V145Q478 101 486.5 80.5Q495 60 514 60Q522 60 530.5 63.0Q539 66 547 73L562 44Q549 20 519.0 5.0Q489 -10 453 -10ZM238 84Q266 84 290.0 98.0Q314 112 329.0 136.5Q344 161 344 190V285Q281 255 244.0 232.0Q207 209 191.0 188.0Q175 167 175 143Q175 116 192.0 100.0Q209 84 238 84Z" transform="translate(6797.0000 0)"/><path d="M257 301V163Q257 109 262.0 84.0Q267 59 285.5 51.0Q304 43 344 40V0H29V40Q68 43 87.0 50.5Q106 58 112.0 82.0Q118 106 118 156V281Q118 340 116.0 376.5Q114 413 111 426Q105 452 88.0 460.0Q71 468 25 468V502L218 540L231 452H235Q268 493 313.5 516.5Q359 540 412 540Q476 540 515.5 522.5Q555 505 586 464Q603 441 616.0 404.5Q629 368 629 304V163Q629 109 634.0 84.0Q639 59 657.5 51.0Q676 43 714 40V0H401V40Q441 42 459.5 50.0Q478 58 484.0 82.5Q490 107 490 156V292Q490 394 464.5 434.5Q439 475 374 475Q342 475 319.0 457.0Q296 439 279 407Q273 395 268.0 378.0Q263 361 260.0 341.5Q257 322 257 301Z" transform="translate(7371.0000 0)"/><path d="M391 243H66V337H391Z" transform="translate(8098.0000 0)"/><path d="M453 -10Q407 -10 382.5 17.5Q358 45 358 97H353Q326 47 279.0 19.0Q232 -9 176 -9Q130 -9 98.0 8.5Q66 26 50.0 54.0Q34 82 34 114Q34 163 74.5 201.5Q115 240 204 278L344 338V380Q344 437 323.5 464.0Q303 491 261 491Q232 491 217.0 476.5Q202 462 188 424Q180 401 163.0 386.0Q146 371 118 371Q90 371 74.5 387.5Q59 404 59 432Q59 483 112.0 511.5Q165 540 268 540Q382 540 430.0 500.0Q478 460 478 364V145Q478 101 486.5 80.5Q495 60 514 60Q522 60 530.5 63.0Q539 66 547 73L562 44Q549 20 519.0 5.0Q489 -10 453 -10ZM238 84Q266 84 290.0 98.0Q314 112 329.0 136.5Q344 161 344 190V285Q281 255 244.0 232.0Q207 209 191.0 188.0Q175 167 175 143Q175 116 192.0 100.0Q209 84 238 84Z" transform="translate(8555.0000 0)"/><path d="M19 -250V-208Q55 -207 74.0 -197.5Q93 -188 99.5 -163.0Q106 -138 106 -90V282Q106 328 104.0 370.0Q102 412 99 428Q95 451 77.0 460.0Q59 469 17 469V508L218 536V465H222Q255 503 298.0 521.5Q341 540 394 540Q472 540 531.5 504.5Q591 469 625.0 407.0Q659 345 659 265Q659 186 625.0 123.5Q591 61 532.0 25.5Q473 -10 396 -10Q347 -10 310.5 6.0Q274 22 248 56H244V-83Q244 -136 252.5 -162.0Q261 -188 286.5 -197.0Q312 -206 364 -208V-250ZM388 56Q449 56 478.5 107.0Q508 158 508 263Q508 336 494.5 384.5Q481 433 454.5 458.0Q428 483 388 483Q356 483 327.0 469.0Q298 455 281 432Q265 410 255.5 375.0Q246 340 246 300V232Q246 198 255.0 167.0Q264 136 281 111Q300 84 327.0 70.0Q354 56 388 56Z" transform="translate(9129.0000 0)"/><path d="M19 -250V-208Q55 -207 74.0 -197.5Q93 -188 99.5 -163.0Q106 -138 106 -90V282Q106 328 104.0 370.0Q102 412 99 428Q95 451 77.0 460.0Q59 469 17 469V508L218 536V465H222Q255 503 298.0 521.5Q341 540 394 540Q472 540 531.5 504.5Q591 469 625.0 407.0Q659 345 659 265Q659 186 625.0 123.5Q591 61 532.0 25.5Q473 -10 396 -10Q347 -10 310.5 6.0Q274 22 248 56H244V-83Q244 -136 252.5 -162.0Q261 -188 286.5 -197.0Q312 -206 364 -208V-250ZM388 56Q449 56 478.5 107.0Q508 158 508 263Q508 336 494.5 384.5Q481 433 454.5 458.0Q428 483 388 483Q356 483 327.0 469.0Q298 455 281 432Q265 410 255.5 375.0Q246 340 246 300V232Q246 198 255.0 167.0Q264 136 281 111Q300 84 327.0 70.0Q354 56 388 56Z" transform="translate(9826.0000 0)"/><path d="M258 203V155Q258 104 265.0 79.5Q272 55 295.0 48.0Q318 41 364 40V0H30V40Q71 43 89.5 51.0Q108 59 113.5 83.0Q119 107 119 157V279Q119 341 115.5 378.5Q112 416 102.5 435.5Q93 455 74.5 461.5Q56 468 26 468V503L226 540L242 425H246Q273 478 317.0 509.0Q361 540 410 540Q448 540 472.0 521.0Q496 502 496 473Q496 441 477.5 419.0Q459 397 427 397Q407 397 392.5 407.0Q378 417 366.0 427.0Q354 437 340 437Q321 437 304.0 412.0Q287 387 276 345Q268 315 263.0 277.5Q258 240 258 203Z" transform="translate(10523.0000 0)"/><path d="M328.0988023952096 540Q388 540 441.0 520.0Q494 500 535.0 463.5Q576 427 599.5 377.5Q623 328 623 269Q623 208 599.5 157.0Q576 106 535.0 68.5Q494 31 440.7547169811321 10.5Q387.50943396226415 -10 328 -10Q269.1696750902527 -10 216.64259927797835 10.5Q164.11552346570397 31 123.66967509025271 68.5Q83.22382671480145 106 60.111913357400724 157.0Q37 208 37 269Q37 348 76.93413173652695 409.0Q116.86826347305389 470 183.0748502994012 505.0Q249.2814371257485 540 328.0988023952096 540ZM328.32 482Q288 482 257.5 455.0Q227 428 210.5 379.9047619047619Q194 331.8095238095238 194 268Q194 169 230.37551867219918 110.0Q266.75103734439836 51 328.05809128630705 51Q391 51 428.5 110.25850340136054Q466 169.51700680272108 466 267.9625850340136Q466 332 449.0 380.0Q432 428 401.1428571428571 455.0Q370.2857142857143 482 328.32 482Z" transform="translate(11021.0000 0)"/><path d="M259 -10 101 401Q86 440 73.5 459.0Q61 478 45.5 484.0Q30 490 7 490V530H306V490Q273 490 257.5 486.5Q242 483 237.5 475.5Q233 468 233 457Q233 444 238.0 427.0Q243 410 250 393L345 131H349L456 392Q463 409 467.0 422.5Q471 436 471 447Q471 469 456.0 479.0Q441 489 403 490V530H624V490Q610 490 597.5 486.5Q585 483 574 473Q568 468 562.0 459.5Q556 451 550.0 440.0Q544 429 537 414L350 -10Z" transform="translate(11681.0000 0)"/><path d="M512 128 540 93Q449 -10 313 -10Q231 -10 169.0 24.0Q107 58 72.5 118.5Q38 179 38 258Q38 341 74.5 404.5Q111 468 176.0 504.0Q241 540 325 540Q431 540 490.0 482.5Q549 425 549 323Q549 307 544.0 303.5Q539 300 516 300H194Q192 295 191.0 287.0Q190 279 190 267Q190 202 209.5 154.5Q229 107 264.5 81.0Q300 55 348 55Q390 55 431.5 74.0Q473 93 512 128ZM201 356H346Q387 356 398.0 360.5Q409 365 409 382Q409 426 384.0 454.0Q359 482 321 482Q278 482 244.5 446.5Q211 411 201 356Z" transform="translate(12305.0000 0)"/><path d="M298 -10Q222 -10 163.5 24.5Q105 59 72.0 120.5Q39 182 39 261Q39 341 72.0 404.0Q105 467 162.5 503.5Q220 540 292 540Q342 540 381.0 525.0Q420 510 448 474H452V559Q452 618 450.5 660.5Q449 703 446 716Q442 737 416.0 746.5Q390 756 337 756V790L590 830V258Q590 184 591.5 143.0Q593 102 597 81Q602 55 615.0 47.5Q628 40 671 40V1L481 -10V64H477Q443 27 397.5 8.5Q352 -10 298 -10ZM450 248V287Q450 325 442.0 357.5Q434 390 418 415Q400 444 372.0 459.0Q344 474 312 474Q254 474 222.5 419.5Q191 365 191 263Q191 160 222.0 103.5Q253 47 311 47Q344 47 374.0 64.0Q404 81 423 110Q437 132 443.5 164.5Q450 197 450 248Z" transform="translate(12890.0000 0)"/><path d="M238 -10 101 401Q91 433 78.0 452.0Q65 471 48.0 480.0Q31 489 8 490V530H294V490Q258 489 244.0 479.5Q230 470 230 447Q230 437 233.5 423.5Q237 410 241 393L304 159H308L448 530H530L635 159H640L720 366Q727 383 730.5 396.5Q734 410 736.0 421.5Q738 433 738 442Q738 468 721.0 479.0Q704 490 675 490V530H890V490Q872 490 860.0 486.0Q848 482 836.5 467.0Q825 452 810.5 421.0Q796 390 775 336L637 -10H558L452 345H448L313 -10Z" transform="translate(13850.0000 0)"/><path d="M328.0988023952096 540Q388 540 441.0 520.0Q494 500 535.0 463.5Q576 427 599.5 377.5Q623 328 623 269Q623 208 599.5 157.0Q576 106 535.0 68.5Q494 31 440.7547169811321 10.5Q387.50943396226415 -10 328 -10Q269.1696750902527 -10 216.64259927797835 10.5Q164.11552346570397 31 123.66967509025271 68.5Q83.22382671480145 106 60.111913357400724 157.0Q37 208 37 269Q37 348 76.93413173652695 409.0Q116.86826347305389 470 183.0748502994012 505.0Q249.2814371257485 540 328.0988023952096 540ZM328.32 482Q288 482 257.5 455.0Q227 428 210.5 379.9047619047619Q194 331.8095238095238 194 268Q194 169 230.37551867219918 110.0Q266.75103734439836 51 328.05809128630705 51Q391 51 428.5 110.25850340136054Q466 169.51700680272108 466 267.9625850340136Q466 332 449.0 380.0Q432 428 401.1428571428571 455.0Q370.2857142857143 482 328.32 482Z" transform="translate(14741.0000 0)"/><path d="M258 203V155Q258 104 265.0 79.5Q272 55 295.0 48.0Q318 41 364 40V0H30V40Q71 43 89.5 51.0Q108 59 113.5 83.0Q119 107 119 157V279Q119 341 115.5 378.5Q112 416 102.5 435.5Q93 455 74.5 461.5Q56 468 26 468V503L226 540L242 425H246Q273 478 317.0 509.0Q361 540 410 540Q448 540 472.0 521.0Q496 502 496 473Q496 441 477.5 419.0Q459 397 427 397Q407 397 392.5 407.0Q378 417 366.0 427.0Q354 437 340 437Q321 437 304.0 412.0Q287 387 276 345Q268 315 263.0 277.5Q258 240 258 203Z" transform="translate(15401.0000 0)"/><path d="M16 0V40Q53 41 72.0 50.5Q91 60 98.0 85.0Q105 110 105 157V581Q105 647 102.5 687.0Q100 727 83 742Q73 751 57.5 753.0Q42 755 19 755V792L242 830V274L338 365Q390 414 412.0 439.0Q434 464 434 474Q434 483 415.5 486.5Q397 490 347 490V530H620V490Q595 490 574.0 484.5Q553 479 533.0 466.5Q513 454 490 432L393 341L566 96Q582 75 596.0 62.5Q610 50 627.5 45.0Q645 40 669 40V0H358V40Q390 40 403.0 42.5Q416 45 416 52Q416 59 405.0 79.0Q394 99 368 137L292 251L242 203V164Q242 112 247.5 85.5Q253 59 268.0 49.5Q283 40 311 40V0Z" transform="translate(15899.0000 0)"/><path d="M54 64.08602150537635Q54 96 76.06451612903226 118.5Q98.12903225806451 141 129.48387096774195 141Q162 141 184.0 118.5Q206 96 206 64.08602150537635Q206 33.31182795698925 183.93548387096774 11.655913978494624Q161.8709677419355 -10 129.3548387096774 -10Q98 -10 76.0 11.655913978494624Q54 33.31182795698925 54 64.08602150537635Z" transform="translate(16563.0000 0)"/></g><g transform="translate(78 406) scale(0.03000000 -0.03000000)" fill="#f6efdb"><path d="M69 0 54 255H93Q107 161 169.5 106.0Q232 51 322 51Q397 51 443.0 85.5Q489 120 489 175Q489 207 474.5 229.0Q460 251 419.5 272.5Q379 294 301 323Q224 353 173.0 389.0Q122 425 97.0 470.0Q72 515 72 568Q72 631 103.5 678.5Q135 726 190.5 753.0Q246 780 319 780Q418 780 504 716L522 766H546L557 550H518Q494 632 443.0 675.5Q392 719 325 719Q264 719 225.0 688.5Q186 658 186 610Q186 582 199.5 561.5Q213 541 250.0 521.5Q287 502 356 476Q449 441 507.0 402.5Q565 364 591.5 319.5Q618 275 618 219Q618 152 580.0 100.0Q542 48 475.0 19.0Q408 -10 320 -10Q261 -10 212.0 6.5Q163 23 113 60L93 0Z" transform="translate(0.0000 0)"/><path d="M19 -250V-208Q55 -207 74.0 -197.5Q93 -188 99.5 -163.0Q106 -138 106 -90V282Q106 328 104.0 370.0Q102 412 99 428Q95 451 77.0 460.0Q59 469 17 469V508L218 536V465H222Q255 503 298.0 521.5Q341 540 394 540Q472 540 531.5 504.5Q591 469 625.0 407.0Q659 345 659 265Q659 186 625.0 123.5Q591 61 532.0 25.5Q473 -10 396 -10Q347 -10 310.5 6.0Q274 22 248 56H244V-83Q244 -136 252.5 -162.0Q261 -188 286.5 -197.0Q312 -206 364 -208V-250ZM388 56Q449 56 478.5 107.0Q508 158 508 263Q508 336 494.5 384.5Q481 433 454.5 458.0Q428 483 388 483Q356 483 327.0 469.0Q298 455 281 432Q265 410 255.5 375.0Q246 340 246 300V232Q246 198 255.0 167.0Q264 136 281 111Q300 84 327.0 70.0Q354 56 388 56Z" transform="translate(663.0000 0)"/><path d="M512 128 540 93Q449 -10 313 -10Q231 -10 169.0 24.0Q107 58 72.5 118.5Q38 179 38 258Q38 341 74.5 404.5Q111 468 176.0 504.0Q241 540 325 540Q431 540 490.0 482.5Q549 425 549 323Q549 307 544.0 303.5Q539 300 516 300H194Q192 295 191.0 287.0Q190 279 190 267Q190 202 209.5 154.5Q229 107 264.5 81.0Q300 55 348 55Q390 55 431.5 74.0Q473 93 512 128ZM201 356H346Q387 356 398.0 360.5Q409 365 409 382Q409 426 384.0 454.0Q359 482 321 482Q278 482 244.5 446.5Q211 411 201 356Z" transform="translate(1360.0000 0)"/><path d="M502 121 528 83Q491 39 434.0 14.5Q377 -10 310 -10Q229 -10 168.0 24.5Q107 59 73.0 120.5Q39 182 39 262Q39 346 75.5 408.5Q112 471 177.0 505.5Q242 540 329 540Q388 540 435.0 524.5Q482 509 509.0 482.0Q536 455 536 420Q536 394 520.0 376.5Q504 359 474 359Q446 359 430.5 373.5Q415 388 400 410Q382 437 370.5 452.5Q359 468 348.0 475.0Q337 482 317 482Q258 482 225.5 429.0Q193 376 193 278Q193 172 231.5 114.0Q270 56 343 56Q383 56 424.0 73.0Q465 90 502 121Z" transform="translate(1945.0000 0)"/><path d="M257 540V164Q257 111 262.5 85.0Q268 59 287.24050632911394 50.45Q306.4810126582278 41.9 344 40V0H29V39.729729729729726Q67 42 86.0090909090909 51.5Q105.01818181818182 61 111.5090909090909 85.5Q118 110 118 157V280Q118 338 116.0 376.0Q114 414 111 427Q106 452 88.5 460.0Q71 468 25 468V502ZM110 752.5Q110 785 132.5 807.5Q155 830 187.5 830Q220 830 242.5 807.5Q265 785 265 752.5Q265 720 242.5 697.5Q220 675 187.5 675Q155 675 132.5 697.5Q110 720 110 752.5Z" transform="translate(2509.0000 0)"/><path d="M453 -10Q407 -10 382.5 17.5Q358 45 358 97H353Q326 47 279.0 19.0Q232 -9 176 -9Q130 -9 98.0 8.5Q66 26 50.0 54.0Q34 82 34 114Q34 163 74.5 201.5Q115 240 204 278L344 338V380Q344 437 323.5 464.0Q303 491 261 491Q232 491 217.0 476.5Q202 462 188 424Q180 401 163.0 386.0Q146 371 118 371Q90 371 74.5 387.5Q59 404 59 432Q59 483 112.0 511.5Q165 540 268 540Q382 540 430.0 500.0Q478 460 478 364V145Q478 101 486.5 80.5Q495 60 514 60Q522 60 530.5 63.0Q539 66 547 73L562 44Q549 20 519.0 5.0Q489 -10 453 -10ZM238 84Q266 84 290.0 98.0Q314 112 329.0 136.5Q344 161 344 190V285Q281 255 244.0 232.0Q207 209 191.0 188.0Q175 167 175 143Q175 116 192.0 100.0Q209 84 238 84Z" transform="translate(2870.0000 0)"/><path d="M247 830V164Q247 111 252.5 85.0Q258 59 277.0 50.5Q296 42 334 40V0H19V40Q57 42 76.0 51.5Q95 61 101.5 85.5Q108 110 108 157V570Q108 628 106.0 666.0Q104 704 101 717Q96 742 78.5 750.0Q61 758 15 758V792Z" transform="translate(3444.0000 0)"/><path d="M257 540V164Q257 111 262.5 85.0Q268 59 287.24050632911394 50.45Q306.4810126582278 41.9 344 40V0H29V39.729729729729726Q67 42 86.0090909090909 51.5Q105.01818181818182 61 111.5090909090909 85.5Q118 110 118 157V280Q118 338 116.0 376.0Q114 414 111 427Q106 452 88.5 460.0Q71 468 25 468V502ZM110 752.5Q110 785 132.5 807.5Q155 830 187.5 830Q220 830 242.5 807.5Q265 785 265 752.5Q265 720 242.5 697.5Q220 675 187.5 675Q155 675 132.5 697.5Q110 720 110 752.5Z" transform="translate(3799.0000 0)"/><path d="M107 35 85 0H54V182H96Q113 111 145.0 77.5Q177 44 228 44Q265 44 285.5 59.5Q306 75 306 102Q306 121 295.0 138.5Q284 156 260.5 174.5Q237 193 200 213Q150 241 118.5 267.5Q87 294 72.5 323.0Q58 352 58 386Q58 431 79.5 466.0Q101 501 138.0 521.0Q175 541 221 541Q252 541 283.0 532.0Q314 523 336 507L354 531H380V380H341Q318 437 293.5 462.0Q269 487 234 487Q206 487 189.5 472.0Q173 457 173 432Q173 404 198.0 379.0Q223 354 279 324Q333 295 366.5 267.0Q400 239 415.0 209.0Q430 179 430 143Q430 74 380.5 32.0Q331 -10 248 -10Q205 -10 168.0 1.5Q131 13 107 35Z" transform="translate(4160.0000 0)"/><path d="M98 475H25V520Q84 537 125.0 572.0Q166 607 186 651H237V530H352V475H237V168Q237 107 251.0 80.5Q265 54 296 54Q316 54 330.5 62.5Q345 71 355 90L376 61Q348 -10 244 -10Q175 -10 136.5 22.0Q98 54 98 112Z" transform="translate(4626.0000 0)"/><path d="M453 -10Q407 -10 382.5 17.5Q358 45 358 97H353Q326 47 279.0 19.0Q232 -9 176 -9Q130 -9 98.0 8.5Q66 26 50.0 54.0Q34 82 34 114Q34 163 74.5 201.5Q115 240 204 278L344 338V380Q344 437 323.5 464.0Q303 491 261 491Q232 491 217.0 476.5Q202 462 188 424Q180 401 163.0 386.0Q146 371 118 371Q90 371 74.5 387.5Q59 404 59 432Q59 483 112.0 511.5Q165 540 268 540Q382 540 430.0 500.0Q478 460 478 364V145Q478 101 486.5 80.5Q495 60 514 60Q522 60 530.5 63.0Q539 66 547 73L562 44Q549 20 519.0 5.0Q489 -10 453 -10ZM238 84Q266 84 290.0 98.0Q314 112 329.0 136.5Q344 161 344 190V285Q281 255 244.0 232.0Q207 209 191.0 188.0Q175 167 175 143Q175 116 192.0 100.0Q209 84 238 84Z" transform="translate(5274.0000 0)"/><path d="M281 -260Q156 -260 89.0 -222.5Q22 -185 22 -115Q22 -68 49.5 -41.5Q77 -15 118 -15Q144 -15 168.5 -25.5Q193 -36 209 -56Q183 -61 166.5 -79.5Q150 -98 150 -125Q150 -163 186.0 -184.5Q222 -206 292 -206Q440 -206 440 -112Q440 -77 418.5 -53.0Q397 -29 353 -23L178 1Q123 9 95.0 34.0Q67 59 67 100Q67 141 93.5 167.0Q120 193 169 203V207Q124 225 95.0 269.5Q66 314 66 366Q66 416 93.0 455.0Q120 494 166.5 517.0Q213 540 270 540Q314 540 355.0 527.0Q396 514 425 491Q463 521 492.5 530.5Q522 540 547 540Q585 540 608.5 523.0Q632 506 632 478Q632 457 619.0 443.5Q606 430 586 430Q566 430 554.5 441.0Q543 452 532.5 462.5Q522 473 504 473Q482 473 462 446Q472 429 476.0 409.5Q480 390 480 367Q480 328 468.0 295.5Q456 263 430.5 237.5Q405 212 365.0 195.5Q325 179 268 173Q237 170 218.0 165.0Q199 160 191.0 153.5Q183 147 183 136Q183 124 194.5 117.0Q206 110 228 107L391 87Q468 77 513.0 30.0Q558 -17 558 -87Q558 -172 487.5 -216.0Q417 -260 281 -260ZM276 230Q308 230 326.0 264.0Q344 298 344 359Q344 421 326.0 454.5Q308 488 275 488Q241 488 221.0 454.0Q201 420 201 361Q201 302 221.5 266.0Q242 230 276 230Z" transform="translate(5848.0000 0)"/><path d="M512 128 540 93Q449 -10 313 -10Q231 -10 169.0 24.0Q107 58 72.5 118.5Q38 179 38 258Q38 341 74.5 404.5Q111 468 176.0 504.0Q241 540 325 540Q431 540 490.0 482.5Q549 425 549 323Q549 307 544.0 303.5Q539 300 516 300H194Q192 295 191.0 287.0Q190 279 190 267Q190 202 209.5 154.5Q229 107 264.5 81.0Q300 55 348 55Q390 55 431.5 74.0Q473 93 512 128ZM201 356H346Q387 356 398.0 360.5Q409 365 409 382Q409 426 384.0 454.0Q359 482 321 482Q278 482 244.5 446.5Q211 411 201 356Z" transform="translate(6458.0000 0)"/><path d="M257 301V163Q257 109 262.0 84.0Q267 59 285.5 51.0Q304 43 344 40V0H29V40Q68 43 87.0 50.5Q106 58 112.0 82.0Q118 106 118 156V281Q118 340 116.0 376.5Q114 413 111 426Q105 452 88.0 460.0Q71 468 25 468V502L218 540L231 452H235Q268 493 313.5 516.5Q359 540 412 540Q476 540 515.5 522.5Q555 505 586 464Q603 441 616.0 404.5Q629 368 629 304V163Q629 109 634.0 84.0Q639 59 657.5 51.0Q676 43 714 40V0H401V40Q441 42 459.5 50.0Q478 58 484.0 82.5Q490 107 490 156V292Q490 394 464.5 434.5Q439 475 374 475Q342 475 319.0 457.0Q296 439 279 407Q273 395 268.0 378.0Q263 361 260.0 341.5Q257 322 257 301Z" transform="translate(7043.0000 0)"/><path d="M98 475H25V520Q84 537 125.0 572.0Q166 607 186 651H237V530H352V475H237V168Q237 107 251.0 80.5Q265 54 296 54Q316 54 330.5 62.5Q345 71 355 90L376 61Q348 -10 244 -10Q175 -10 136.5 22.0Q98 54 98 112Z" transform="translate(7770.0000 0)"/><path d="M107 35 85 0H54V182H96Q113 111 145.0 77.5Q177 44 228 44Q265 44 285.5 59.5Q306 75 306 102Q306 121 295.0 138.5Q284 156 260.5 174.5Q237 193 200 213Q150 241 118.5 267.5Q87 294 72.5 323.0Q58 352 58 386Q58 431 79.5 466.0Q101 501 138.0 521.0Q175 541 221 541Q252 541 283.0 532.0Q314 523 336 507L354 531H380V380H341Q318 437 293.5 462.0Q269 487 234 487Q206 487 189.5 472.0Q173 457 173 432Q173 404 198.0 379.0Q223 354 279 324Q333 295 366.5 267.0Q400 239 415.0 209.0Q430 179 430 143Q430 74 380.5 32.0Q331 -10 248 -10Q205 -10 168.0 1.5Q131 13 107 35Z" transform="translate(8152.0000 0)"/><path d="M453 -10Q407 -10 382.5 17.5Q358 45 358 97H353Q326 47 279.0 19.0Q232 -9 176 -9Q130 -9 98.0 8.5Q66 26 50.0 54.0Q34 82 34 114Q34 163 74.5 201.5Q115 240 204 278L344 338V380Q344 437 323.5 464.0Q303 491 261 491Q232 491 217.0 476.5Q202 462 188 424Q180 401 163.0 386.0Q146 371 118 371Q90 371 74.5 387.5Q59 404 59 432Q59 483 112.0 511.5Q165 540 268 540Q382 540 430.0 500.0Q478 460 478 364V145Q478 101 486.5 80.5Q495 60 514 60Q522 60 530.5 63.0Q539 66 547 73L562 44Q549 20 519.0 5.0Q489 -10 453 -10ZM238 84Q266 84 290.0 98.0Q314 112 329.0 136.5Q344 161 344 190V285Q281 255 244.0 232.0Q207 209 191.0 188.0Q175 167 175 143Q175 116 192.0 100.0Q209 84 238 84Z" transform="translate(8884.0000 0)"/><path d="M257 301V163Q257 109 262.0 84.0Q267 59 285.5 51.0Q304 43 344 40V0H29V40Q68 43 87.0 50.5Q106 58 112.0 82.0Q118 106 118 156V281Q118 340 116.0 376.5Q114 413 111 426Q105 452 88.0 460.0Q71 468 25 468V502L218 540L231 452H235Q268 493 313.5 516.5Q359 540 412 540Q476 540 515.5 522.5Q555 505 586 464Q603 441 616.0 404.5Q629 368 629 304V163Q629 109 634.0 84.0Q639 59 657.5 51.0Q676 43 714 40V0H401V40Q441 42 459.5 50.0Q478 58 484.0 82.5Q490 107 490 156V292Q490 394 464.5 434.5Q439 475 374 475Q342 475 319.0 457.0Q296 439 279 407Q273 395 268.0 378.0Q263 361 260.0 341.5Q257 322 257 301Z" transform="translate(9458.0000 0)"/><path d="M298 -10Q222 -10 163.5 24.5Q105 59 72.0 120.5Q39 182 39 261Q39 341 72.0 404.0Q105 467 162.5 503.5Q220 540 292 540Q342 540 381.0 525.0Q420 510 448 474H452V559Q452 618 450.5 660.5Q449 703 446 716Q442 737 416.0 746.5Q390 756 337 756V790L590 830V258Q590 184 591.5 143.0Q593 102 597 81Q602 55 615.0 47.5Q628 40 671 40V1L481 -10V64H477Q443 27 397.5 8.5Q352 -10 298 -10ZM450 248V287Q450 325 442.0 357.5Q434 390 418 415Q400 444 372.0 459.0Q344 474 312 474Q254 474 222.5 419.5Q191 365 191 263Q191 160 222.0 103.5Q253 47 311 47Q344 47 374.0 64.0Q404 81 423 110Q437 132 443.5 164.5Q450 197 450 248Z" transform="translate(10185.0000 0)"/><path d="M107 35 85 0H54V182H96Q113 111 145.0 77.5Q177 44 228 44Q265 44 285.5 59.5Q306 75 306 102Q306 121 295.0 138.5Q284 156 260.5 174.5Q237 193 200 213Q150 241 118.5 267.5Q87 294 72.5 323.0Q58 352 58 386Q58 431 79.5 466.0Q101 501 138.0 521.0Q175 541 221 541Q252 541 283.0 532.0Q314 523 336 507L354 531H380V380H341Q318 437 293.5 462.0Q269 487 234 487Q206 487 189.5 472.0Q173 457 173 432Q173 404 198.0 379.0Q223 354 279 324Q333 295 366.5 267.0Q400 239 415.0 209.0Q430 179 430 143Q430 74 380.5 32.0Q331 -10 248 -10Q205 -10 168.0 1.5Q131 13 107 35Z" transform="translate(11145.0000 0)"/><path d="M16 0V40Q53 41 72.0 50.5Q91 60 98.0 85.0Q105 110 105 157V581Q105 647 102.5 687.0Q100 727 83 742Q73 751 57.5 753.0Q42 755 19 755V792L242 830V274L338 365Q390 414 412.0 439.0Q434 464 434 474Q434 483 415.5 486.5Q397 490 347 490V530H620V490Q595 490 574.0 484.5Q553 479 533.0 466.5Q513 454 490 432L393 341L566 96Q582 75 596.0 62.5Q610 50 627.5 45.0Q645 40 669 40V0H358V40Q390 40 403.0 42.5Q416 45 416 52Q416 59 405.0 79.0Q394 99 368 137L292 251L242 203V164Q242 112 247.5 85.5Q253 59 268.0 49.5Q283 40 311 40V0Z" transform="translate(11611.0000 0)"/><path d="M257 540V164Q257 111 262.5 85.0Q268 59 287.24050632911394 50.45Q306.4810126582278 41.9 344 40V0H29V39.729729729729726Q67 42 86.0090909090909 51.5Q105.01818181818182 61 111.5090909090909 85.5Q118 110 118 157V280Q118 338 116.0 376.0Q114 414 111 427Q106 452 88.5 460.0Q71 468 25 468V502ZM110 752.5Q110 785 132.5 807.5Q155 830 187.5 830Q220 830 242.5 807.5Q265 785 265 752.5Q265 720 242.5 697.5Q220 675 187.5 675Q155 675 132.5 697.5Q110 720 110 752.5Z" transform="translate(12275.0000 0)"/><path d="M247 830V164Q247 111 252.5 85.0Q258 59 277.0 50.5Q296 42 334 40V0H19V40Q57 42 76.0 51.5Q95 61 101.5 85.5Q108 110 108 157V570Q108 628 106.0 666.0Q104 704 101 717Q96 742 78.5 750.0Q61 758 15 758V792Z" transform="translate(12636.0000 0)"/><path d="M247 830V164Q247 111 252.5 85.0Q258 59 277.0 50.5Q296 42 334 40V0H19V40Q57 42 76.0 51.5Q95 61 101.5 85.5Q108 110 108 157V570Q108 628 106.0 666.0Q104 704 101 717Q96 742 78.5 750.0Q61 758 15 758V792Z" transform="translate(12991.0000 0)"/><path d="M107 35 85 0H54V182H96Q113 111 145.0 77.5Q177 44 228 44Q265 44 285.5 59.5Q306 75 306 102Q306 121 295.0 138.5Q284 156 260.5 174.5Q237 193 200 213Q150 241 118.5 267.5Q87 294 72.5 323.0Q58 352 58 386Q58 431 79.5 466.0Q101 501 138.0 521.0Q175 541 221 541Q252 541 283.0 532.0Q314 523 336 507L354 531H380V380H341Q318 437 293.5 462.0Q269 487 234 487Q206 487 189.5 472.0Q173 457 173 432Q173 404 198.0 379.0Q223 354 279 324Q333 295 366.5 267.0Q400 239 415.0 209.0Q430 179 430 143Q430 74 380.5 32.0Q331 -10 248 -10Q205 -10 168.0 1.5Q131 13 107 35Z" transform="translate(13346.0000 0)"/><path d="M54 64.08602150537635Q54 96 76.06451612903226 118.5Q98.12903225806451 141 129.48387096774195 141Q162 141 184.0 118.5Q206 96 206 64.08602150537635Q206 33.31182795698925 183.93548387096774 11.655913978494624Q161.8709677419355 -10 129.3548387096774 -10Q98 -10 76.0 11.655913978494624Q54 33.31182795698925 54 64.08602150537635Z" transform="translate(13812.0000 0)"/></g>
  <g transform="translate(78 500) scale(0.02200000 -0.02200000)" fill="#d8c995"><path d="M298 -10Q222 -10 163.5 24.5Q105 59 72.0 120.5Q39 182 39 261Q39 341 72.0 404.0Q105 467 162.5 503.5Q220 540 292 540Q342 540 381.0 525.0Q420 510 448 474H452V559Q452 618 450.5 660.5Q449 703 446 716Q442 737 416.0 746.5Q390 756 337 756V790L590 830V258Q590 184 591.5 143.0Q593 102 597 81Q602 55 615.0 47.5Q628 40 671 40V1L481 -10V64H477Q443 27 397.5 8.5Q352 -10 298 -10ZM450 248V287Q450 325 442.0 357.5Q434 390 418 415Q400 444 372.0 459.0Q344 474 312 474Q254 474 222.5 419.5Q191 365 191 263Q191 160 222.0 103.5Q253 47 311 47Q344 47 374.0 64.0Q404 81 423 110Q437 132 443.5 164.5Q450 197 450 248Z" transform="translate(0.0000 0)"/><path d="M512 128 540 93Q449 -10 313 -10Q231 -10 169.0 24.0Q107 58 72.5 118.5Q38 179 38 258Q38 341 74.5 404.5Q111 468 176.0 504.0Q241 540 325 540Q431 540 490.0 482.5Q549 425 549 323Q549 307 544.0 303.5Q539 300 516 300H194Q192 295 191.0 287.0Q190 279 190 267Q190 202 209.5 154.5Q229 107 264.5 81.0Q300 55 348 55Q390 55 431.5 74.0Q473 93 512 128ZM201 356H346Q387 356 398.0 360.5Q409 365 409 382Q409 426 384.0 454.0Q359 482 321 482Q278 482 244.5 446.5Q211 411 201 356Z" transform="translate(694.0000 0)"/><path d="M35 0V40Q75 42 94.0 50.5Q113 59 119.0 83.5Q125 108 125 158V475H17V530H125V586Q125 659 157.0 713.5Q189 768 246.0 799.0Q303 830 378 830Q446 830 490.0 806.0Q534 782 534 745Q534 723 517.0 707.5Q500 692 474 692Q449 692 437.0 708.0Q425 724 402 748Q385 766 374.0 770.0Q363 774 355 774Q336 774 317.0 764.5Q298 755 285 735Q272 715 268.0 684.0Q264 653 264 602V530H433V475H264V166Q264 116 273.0 89.0Q282 62 305.5 51.5Q329 41 373 40V0Z" transform="translate(1279.0000 0)"/><path d="M257 540V164Q257 111 262.5 85.0Q268 59 287.24050632911394 50.45Q306.4810126582278 41.9 344 40V0H29V39.729729729729726Q67 42 86.0090909090909 51.5Q105.01818181818182 61 111.5090909090909 85.5Q118 110 118 157V280Q118 338 116.0 376.0Q114 414 111 427Q106 452 88.5 460.0Q71 468 25 468V502ZM110 752.5Q110 785 132.5 807.5Q155 830 187.5 830Q220 830 242.5 807.5Q265 785 265 752.5Q265 720 242.5 697.5Q220 675 187.5 675Q155 675 132.5 697.5Q110 720 110 752.5Z" transform="translate(1722.0000 0)"/><path d="M257 301V163Q257 109 262.0 84.0Q267 59 285.5 51.0Q304 43 344 40V0H29V40Q68 43 87.0 50.5Q106 58 112.0 82.0Q118 106 118 156V281Q118 340 116.0 376.5Q114 413 111 426Q105 452 88.0 460.0Q71 468 25 468V502L218 540L231 452H235Q268 493 313.5 516.5Q359 540 412 540Q476 540 515.5 522.5Q555 505 586 464Q603 441 616.0 404.5Q629 368 629 304V163Q629 109 634.0 84.0Q639 59 657.5 51.0Q676 43 714 40V0H401V40Q441 42 459.5 50.0Q478 58 484.0 82.5Q490 107 490 156V292Q490 394 464.5 434.5Q439 475 374 475Q342 475 319.0 457.0Q296 439 279 407Q273 395 268.0 378.0Q263 361 260.0 341.5Q257 322 257 301Z" transform="translate(2083.0000 0)"/><path d="M512 128 540 93Q449 -10 313 -10Q231 -10 169.0 24.0Q107 58 72.5 118.5Q38 179 38 258Q38 341 74.5 404.5Q111 468 176.0 504.0Q241 540 325 540Q431 540 490.0 482.5Q549 425 549 323Q549 307 544.0 303.5Q539 300 516 300H194Q192 295 191.0 287.0Q190 279 190 267Q190 202 209.5 154.5Q229 107 264.5 81.0Q300 55 348 55Q390 55 431.5 74.0Q473 93 512 128ZM201 356H346Q387 356 398.0 360.5Q409 365 409 382Q409 426 384.0 454.0Q359 482 321 482Q278 482 244.5 446.5Q211 411 201 356Z" transform="translate(2810.0000 0)"/><path d="M100 240H650L480 410L560 490L900 240L560 -10L480 70L650 240H100Z" transform="translate(3661.0000 0)"/><path d="M19 -250V-208Q55 -207 74.0 -197.5Q93 -188 99.5 -163.0Q106 -138 106 -90V282Q106 328 104.0 370.0Q102 412 99 428Q95 451 77.0 460.0Q59 469 17 469V508L218 536V465H222Q255 503 298.0 521.5Q341 540 394 540Q472 540 531.5 504.5Q591 469 625.0 407.0Q659 345 659 265Q659 186 625.0 123.5Q591 61 532.0 25.5Q473 -10 396 -10Q347 -10 310.5 6.0Q274 22 248 56H244V-83Q244 -136 252.5 -162.0Q261 -188 286.5 -197.0Q312 -206 364 -208V-250ZM388 56Q449 56 478.5 107.0Q508 158 508 263Q508 336 494.5 384.5Q481 433 454.5 458.0Q428 483 388 483Q356 483 327.0 469.0Q298 455 281 432Q265 410 255.5 375.0Q246 340 246 300V232Q246 198 255.0 167.0Q264 136 281 111Q300 84 327.0 70.0Q354 56 388 56Z" transform="translate(4927.0000 0)"/><path d="M247 830V164Q247 111 252.5 85.0Q258 59 277.0 50.5Q296 42 334 40V0H19V40Q57 42 76.0 51.5Q95 61 101.5 85.5Q108 110 108 157V570Q108 628 106.0 666.0Q104 704 101 717Q96 742 78.5 750.0Q61 758 15 758V792Z" transform="translate(5624.0000 0)"/><path d="M453 -10Q407 -10 382.5 17.5Q358 45 358 97H353Q326 47 279.0 19.0Q232 -9 176 -9Q130 -9 98.0 8.5Q66 26 50.0 54.0Q34 82 34 114Q34 163 74.5 201.5Q115 240 204 278L344 338V380Q344 437 323.5 464.0Q303 491 261 491Q232 491 217.0 476.5Q202 462 188 424Q180 401 163.0 386.0Q146 371 118 371Q90 371 74.5 387.5Q59 404 59 432Q59 483 112.0 511.5Q165 540 268 540Q382 540 430.0 500.0Q478 460 478 364V145Q478 101 486.5 80.5Q495 60 514 60Q522 60 530.5 63.0Q539 66 547 73L562 44Q549 20 519.0 5.0Q489 -10 453 -10ZM238 84Q266 84 290.0 98.0Q314 112 329.0 136.5Q344 161 344 190V285Q281 255 244.0 232.0Q207 209 191.0 188.0Q175 167 175 143Q175 116 192.0 100.0Q209 84 238 84Z" transform="translate(5979.0000 0)"/><path d="M257 301V163Q257 109 262.0 84.0Q267 59 285.5 51.0Q304 43 344 40V0H29V40Q68 43 87.0 50.5Q106 58 112.0 82.0Q118 106 118 156V281Q118 340 116.0 376.5Q114 413 111 426Q105 452 88.0 460.0Q71 468 25 468V502L218 540L231 452H235Q268 493 313.5 516.5Q359 540 412 540Q476 540 515.5 522.5Q555 505 586 464Q603 441 616.0 404.5Q629 368 629 304V163Q629 109 634.0 84.0Q639 59 657.5 51.0Q676 43 714 40V0H401V40Q441 42 459.5 50.0Q478 58 484.0 82.5Q490 107 490 156V292Q490 394 464.5 434.5Q439 475 374 475Q342 475 319.0 457.0Q296 439 279 407Q273 395 268.0 378.0Q263 361 260.0 341.5Q257 322 257 301Z" transform="translate(6553.0000 0)"/><path d="M100 240H650L480 410L560 490L900 240L560 -10L480 70L650 240H100Z" transform="translate(7546.0000 0)"/><path d="M453 -10Q407 -10 382.5 17.5Q358 45 358 97H353Q326 47 279.0 19.0Q232 -9 176 -9Q130 -9 98.0 8.5Q66 26 50.0 54.0Q34 82 34 114Q34 163 74.5 201.5Q115 240 204 278L344 338V380Q344 437 323.5 464.0Q303 491 261 491Q232 491 217.0 476.5Q202 462 188 424Q180 401 163.0 386.0Q146 371 118 371Q90 371 74.5 387.5Q59 404 59 432Q59 483 112.0 511.5Q165 540 268 540Q382 540 430.0 500.0Q478 460 478 364V145Q478 101 486.5 80.5Q495 60 514 60Q522 60 530.5 63.0Q539 66 547 73L562 44Q549 20 519.0 5.0Q489 -10 453 -10ZM238 84Q266 84 290.0 98.0Q314 112 329.0 136.5Q344 161 344 190V285Q281 255 244.0 232.0Q207 209 191.0 188.0Q175 167 175 143Q175 116 192.0 100.0Q209 84 238 84Z" transform="translate(8812.0000 0)"/><path d="M19 -250V-208Q55 -207 74.0 -197.5Q93 -188 99.5 -163.0Q106 -138 106 -90V282Q106 328 104.0 370.0Q102 412 99 428Q95 451 77.0 460.0Q59 469 17 469V508L218 536V465H222Q255 503 298.0 521.5Q341 540 394 540Q472 540 531.5 504.5Q591 469 625.0 407.0Q659 345 659 265Q659 186 625.0 123.5Q591 61 532.0 25.5Q473 -10 396 -10Q347 -10 310.5 6.0Q274 22 248 56H244V-83Q244 -136 252.5 -162.0Q261 -188 286.5 -197.0Q312 -206 364 -208V-250ZM388 56Q449 56 478.5 107.0Q508 158 508 263Q508 336 494.5 384.5Q481 433 454.5 458.0Q428 483 388 483Q356 483 327.0 469.0Q298 455 281 432Q265 410 255.5 375.0Q246 340 246 300V232Q246 198 255.0 167.0Q264 136 281 111Q300 84 327.0 70.0Q354 56 388 56Z" transform="translate(9386.0000 0)"/><path d="M19 -250V-208Q55 -207 74.0 -197.5Q93 -188 99.5 -163.0Q106 -138 106 -90V282Q106 328 104.0 370.0Q102 412 99 428Q95 451 77.0 460.0Q59 469 17 469V508L218 536V465H222Q255 503 298.0 521.5Q341 540 394 540Q472 540 531.5 504.5Q591 469 625.0 407.0Q659 345 659 265Q659 186 625.0 123.5Q591 61 532.0 25.5Q473 -10 396 -10Q347 -10 310.5 6.0Q274 22 248 56H244V-83Q244 -136 252.5 -162.0Q261 -188 286.5 -197.0Q312 -206 364 -208V-250ZM388 56Q449 56 478.5 107.0Q508 158 508 263Q508 336 494.5 384.5Q481 433 454.5 458.0Q428 483 388 483Q356 483 327.0 469.0Q298 455 281 432Q265 410 255.5 375.0Q246 340 246 300V232Q246 198 255.0 167.0Q264 136 281 111Q300 84 327.0 70.0Q354 56 388 56Z" transform="translate(10083.0000 0)"/><path d="M258 203V155Q258 104 265.0 79.5Q272 55 295.0 48.0Q318 41 364 40V0H30V40Q71 43 89.5 51.0Q108 59 113.5 83.0Q119 107 119 157V279Q119 341 115.5 378.5Q112 416 102.5 435.5Q93 455 74.5 461.5Q56 468 26 468V503L226 540L242 425H246Q273 478 317.0 509.0Q361 540 410 540Q448 540 472.0 521.0Q496 502 496 473Q496 441 477.5 419.0Q459 397 427 397Q407 397 392.5 407.0Q378 417 366.0 427.0Q354 437 340 437Q321 437 304.0 412.0Q287 387 276 345Q268 315 263.0 277.5Q258 240 258 203Z" transform="translate(10780.0000 0)"/><path d="M328.0988023952096 540Q388 540 441.0 520.0Q494 500 535.0 463.5Q576 427 599.5 377.5Q623 328 623 269Q623 208 599.5 157.0Q576 106 535.0 68.5Q494 31 440.7547169811321 10.5Q387.50943396226415 -10 328 -10Q269.1696750902527 -10 216.64259927797835 10.5Q164.11552346570397 31 123.66967509025271 68.5Q83.22382671480145 106 60.111913357400724 157.0Q37 208 37 269Q37 348 76.93413173652695 409.0Q116.86826347305389 470 183.0748502994012 505.0Q249.2814371257485 540 328.0988023952096 540ZM328.32 482Q288 482 257.5 455.0Q227 428 210.5 379.9047619047619Q194 331.8095238095238 194 268Q194 169 230.37551867219918 110.0Q266.75103734439836 51 328.05809128630705 51Q391 51 428.5 110.25850340136054Q466 169.51700680272108 466 267.9625850340136Q466 332 449.0 380.0Q432 428 401.1428571428571 455.0Q370.2857142857143 482 328.32 482Z" transform="translate(11278.0000 0)"/><path d="M259 -10 101 401Q86 440 73.5 459.0Q61 478 45.5 484.0Q30 490 7 490V530H306V490Q273 490 257.5 486.5Q242 483 237.5 475.5Q233 468 233 457Q233 444 238.0 427.0Q243 410 250 393L345 131H349L456 392Q463 409 467.0 422.5Q471 436 471 447Q471 469 456.0 479.0Q441 489 403 490V530H624V490Q610 490 597.5 486.5Q585 483 574 473Q568 468 562.0 459.5Q556 451 550.0 440.0Q544 429 537 414L350 -10Z" transform="translate(11938.0000 0)"/><path d="M512 128 540 93Q449 -10 313 -10Q231 -10 169.0 24.0Q107 58 72.5 118.5Q38 179 38 258Q38 341 74.5 404.5Q111 468 176.0 504.0Q241 540 325 540Q431 540 490.0 482.5Q549 425 549 323Q549 307 544.0 303.5Q539 300 516 300H194Q192 295 191.0 287.0Q190 279 190 267Q190 202 209.5 154.5Q229 107 264.5 81.0Q300 55 348 55Q390 55 431.5 74.0Q473 93 512 128ZM201 356H346Q387 356 398.0 360.5Q409 365 409 382Q409 426 384.0 454.0Q359 482 321 482Q278 482 244.5 446.5Q211 411 201 356Z" transform="translate(12562.0000 0)"/><path d="M100 240H650L480 410L560 490L900 240L560 -10L480 70L650 240H100Z" transform="translate(13413.0000 0)"/><path d="M257 540V164Q257 111 262.5 85.0Q268 59 287.24050632911394 50.45Q306.4810126582278 41.9 344 40V0H29V39.729729729729726Q67 42 86.0090909090909 51.5Q105.01818181818182 61 111.5090909090909 85.5Q118 110 118 157V280Q118 338 116.0 376.0Q114 414 111 427Q106 452 88.5 460.0Q71 468 25 468V502ZM110 752.5Q110 785 132.5 807.5Q155 830 187.5 830Q220 830 242.5 807.5Q265 785 265 752.5Q265 720 242.5 697.5Q220 675 187.5 675Q155 675 132.5 697.5Q110 720 110 752.5Z" transform="translate(14679.0000 0)"/><path d="M258 297V165Q258 110 263.0 84.0Q268 58 286.0 50.5Q304 43 344 40V0H28V40Q68 43 87.0 51.0Q106 59 112.0 83.0Q118 107 118 157V281Q118 338 116.5 376.5Q115 415 111 428Q105 454 89.5 461.0Q74 468 26 468V502L219 540L231 453H237Q279 500 322.0 520.0Q365 540 420 540Q486 540 529.0 517.0Q572 494 594 451H598Q634 493 684.5 516.5Q735 540 791 540Q850 540 895.0 525.0Q940 510 965 482Q985 460 994.5 422.0Q1004 384 1004 319V165Q1004 110 1009.5 84.5Q1015 59 1033.5 51.0Q1052 43 1091 40V0H775V40Q815 42 834.0 50.0Q853 58 858.5 82.5Q864 107 864 157V288Q864 392 839.0 433.5Q814 475 752 475Q717 475 694.5 458.0Q672 441 657 414Q649 399 643.0 380.0Q637 361 634.0 340.5Q631 320 631 297V165Q631 110 636.0 84.5Q641 59 659.5 51.0Q678 43 719 40V0H402V40Q442 43 461.0 51.0Q480 59 485.5 83.0Q491 107 491 157V288Q491 358 480.0 399.0Q469 440 444.0 457.5Q419 475 375 475Q342 475 320.5 459.0Q299 443 285 416Q277 400 270.5 381.0Q264 362 261.0 340.5Q258 319 258 297Z" transform="translate(15040.0000 0)"/><path d="M19 -250V-208Q55 -207 74.0 -197.5Q93 -188 99.5 -163.0Q106 -138 106 -90V282Q106 328 104.0 370.0Q102 412 99 428Q95 451 77.0 460.0Q59 469 17 469V508L218 536V465H222Q255 503 298.0 521.5Q341 540 394 540Q472 540 531.5 504.5Q591 469 625.0 407.0Q659 345 659 265Q659 186 625.0 123.5Q591 61 532.0 25.5Q473 -10 396 -10Q347 -10 310.5 6.0Q274 22 248 56H244V-83Q244 -136 252.5 -162.0Q261 -188 286.5 -197.0Q312 -206 364 -208V-250ZM388 56Q449 56 478.5 107.0Q508 158 508 263Q508 336 494.5 384.5Q481 433 454.5 458.0Q428 483 388 483Q356 483 327.0 469.0Q298 455 281 432Q265 410 255.5 375.0Q246 340 246 300V232Q246 198 255.0 167.0Q264 136 281 111Q300 84 327.0 70.0Q354 56 388 56Z" transform="translate(16146.0000 0)"/><path d="M247 830V164Q247 111 252.5 85.0Q258 59 277.0 50.5Q296 42 334 40V0H19V40Q57 42 76.0 51.5Q95 61 101.5 85.5Q108 110 108 157V570Q108 628 106.0 666.0Q104 704 101 717Q96 742 78.5 750.0Q61 758 15 758V792Z" transform="translate(16843.0000 0)"/><path d="M512 128 540 93Q449 -10 313 -10Q231 -10 169.0 24.0Q107 58 72.5 118.5Q38 179 38 258Q38 341 74.5 404.5Q111 468 176.0 504.0Q241 540 325 540Q431 540 490.0 482.5Q549 425 549 323Q549 307 544.0 303.5Q539 300 516 300H194Q192 295 191.0 287.0Q190 279 190 267Q190 202 209.5 154.5Q229 107 264.5 81.0Q300 55 348 55Q390 55 431.5 74.0Q473 93 512 128ZM201 356H346Q387 356 398.0 360.5Q409 365 409 382Q409 426 384.0 454.0Q359 482 321 482Q278 482 244.5 446.5Q211 411 201 356Z" transform="translate(17198.0000 0)"/><path d="M258 297V165Q258 110 263.0 84.0Q268 58 286.0 50.5Q304 43 344 40V0H28V40Q68 43 87.0 51.0Q106 59 112.0 83.0Q118 107 118 157V281Q118 338 116.5 376.5Q115 415 111 428Q105 454 89.5 461.0Q74 468 26 468V502L219 540L231 453H237Q279 500 322.0 520.0Q365 540 420 540Q486 540 529.0 517.0Q572 494 594 451H598Q634 493 684.5 516.5Q735 540 791 540Q850 540 895.0 525.0Q940 510 965 482Q985 460 994.5 422.0Q1004 384 1004 319V165Q1004 110 1009.5 84.5Q1015 59 1033.5 51.0Q1052 43 1091 40V0H775V40Q815 42 834.0 50.0Q853 58 858.5 82.5Q864 107 864 157V288Q864 392 839.0 433.5Q814 475 752 475Q717 475 694.5 458.0Q672 441 657 414Q649 399 643.0 380.0Q637 361 634.0 340.5Q631 320 631 297V165Q631 110 636.0 84.5Q641 59 659.5 51.0Q678 43 719 40V0H402V40Q442 43 461.0 51.0Q480 59 485.5 83.0Q491 107 491 157V288Q491 358 480.0 399.0Q469 440 444.0 457.5Q419 475 375 475Q342 475 320.5 459.0Q299 443 285 416Q277 400 270.5 381.0Q264 362 261.0 340.5Q258 319 258 297Z" transform="translate(17783.0000 0)"/><path d="M512 128 540 93Q449 -10 313 -10Q231 -10 169.0 24.0Q107 58 72.5 118.5Q38 179 38 258Q38 341 74.5 404.5Q111 468 176.0 504.0Q241 540 325 540Q431 540 490.0 482.5Q549 425 549 323Q549 307 544.0 303.5Q539 300 516 300H194Q192 295 191.0 287.0Q190 279 190 267Q190 202 209.5 154.5Q229 107 264.5 81.0Q300 55 348 55Q390 55 431.5 74.0Q473 93 512 128ZM201 356H346Q387 356 398.0 360.5Q409 365 409 382Q409 426 384.0 454.0Q359 482 321 482Q278 482 244.5 446.5Q211 411 201 356Z" transform="translate(18889.0000 0)"/><path d="M257 301V163Q257 109 262.0 84.0Q267 59 285.5 51.0Q304 43 344 40V0H29V40Q68 43 87.0 50.5Q106 58 112.0 82.0Q118 106 118 156V281Q118 340 116.0 376.5Q114 413 111 426Q105 452 88.0 460.0Q71 468 25 468V502L218 540L231 452H235Q268 493 313.5 516.5Q359 540 412 540Q476 540 515.5 522.5Q555 505 586 464Q603 441 616.0 404.5Q629 368 629 304V163Q629 109 634.0 84.0Q639 59 657.5 51.0Q676 43 714 40V0H401V40Q441 42 459.5 50.0Q478 58 484.0 82.5Q490 107 490 156V292Q490 394 464.5 434.5Q439 475 374 475Q342 475 319.0 457.0Q296 439 279 407Q273 395 268.0 378.0Q263 361 260.0 341.5Q257 322 257 301Z" transform="translate(19474.0000 0)"/><path d="M98 475H25V520Q84 537 125.0 572.0Q166 607 186 651H237V530H352V475H237V168Q237 107 251.0 80.5Q265 54 296 54Q316 54 330.5 62.5Q345 71 355 90L376 61Q348 -10 244 -10Q175 -10 136.5 22.0Q98 54 98 112Z" transform="translate(20201.0000 0)"/><path d="M100 240H650L480 410L560 490L900 240L560 -10L480 70L650 240H100Z" transform="translate(20849.0000 0)"/><path d="M259 -10 101 401Q86 440 73.5 459.0Q61 478 45.5 484.0Q30 490 7 490V530H306V490Q273 490 257.5 486.5Q242 483 237.5 475.5Q233 468 233 457Q233 444 238.0 427.0Q243 410 250 393L345 131H349L456 392Q463 409 467.0 422.5Q471 436 471 447Q471 469 456.0 479.0Q441 489 403 490V530H624V490Q610 490 597.5 486.5Q585 483 574 473Q568 468 562.0 459.5Q556 451 550.0 440.0Q544 429 537 414L350 -10Z" transform="translate(22115.0000 0)"/><path d="M512 128 540 93Q449 -10 313 -10Q231 -10 169.0 24.0Q107 58 72.5 118.5Q38 179 38 258Q38 341 74.5 404.5Q111 468 176.0 504.0Q241 540 325 540Q431 540 490.0 482.5Q549 425 549 323Q549 307 544.0 303.5Q539 300 516 300H194Q192 295 191.0 287.0Q190 279 190 267Q190 202 209.5 154.5Q229 107 264.5 81.0Q300 55 348 55Q390 55 431.5 74.0Q473 93 512 128ZM201 356H346Q387 356 398.0 360.5Q409 365 409 382Q409 426 384.0 454.0Q359 482 321 482Q278 482 244.5 446.5Q211 411 201 356Z" transform="translate(22739.0000 0)"/><path d="M258 203V155Q258 104 265.0 79.5Q272 55 295.0 48.0Q318 41 364 40V0H30V40Q71 43 89.5 51.0Q108 59 113.5 83.0Q119 107 119 157V279Q119 341 115.5 378.5Q112 416 102.5 435.5Q93 455 74.5 461.5Q56 468 26 468V503L226 540L242 425H246Q273 478 317.0 509.0Q361 540 410 540Q448 540 472.0 521.0Q496 502 496 473Q496 441 477.5 419.0Q459 397 427 397Q407 397 392.5 407.0Q378 417 366.0 427.0Q354 437 340 437Q321 437 304.0 412.0Q287 387 276 345Q268 315 263.0 277.5Q258 240 258 203Z" transform="translate(23324.0000 0)"/><path d="M257 540V164Q257 111 262.5 85.0Q268 59 287.24050632911394 50.45Q306.4810126582278 41.9 344 40V0H29V39.729729729729726Q67 42 86.0090909090909 51.5Q105.01818181818182 61 111.5090909090909 85.5Q118 110 118 157V280Q118 338 116.0 376.0Q114 414 111 427Q106 452 88.5 460.0Q71 468 25 468V502ZM110 752.5Q110 785 132.5 807.5Q155 830 187.5 830Q220 830 242.5 807.5Q265 785 265 752.5Q265 720 242.5 697.5Q220 675 187.5 675Q155 675 132.5 697.5Q110 720 110 752.5Z" transform="translate(23822.0000 0)"/><path d="M35 0V40Q75 42 94.0 50.5Q113 59 119.0 83.5Q125 108 125 158V475H17V530H125V586Q125 659 157.0 713.5Q189 768 246.0 799.0Q303 830 378 830Q446 830 490.0 806.0Q534 782 534 745Q534 723 517.0 707.5Q500 692 474 692Q449 692 437.0 708.0Q425 724 402 748Q385 766 374.0 770.0Q363 774 355 774Q336 774 317.0 764.5Q298 755 285 735Q272 715 268.0 684.0Q264 653 264 602V530H433V475H264V166Q264 116 273.0 89.0Q282 62 305.5 51.5Q329 41 373 40V0Z" transform="translate(24183.0000 0)"/><path d="M516 323 287 -157Q266 -201 223.0 -230.5Q180 -260 136 -260Q103 -260 83.0 -244.0Q63 -228 63 -201Q63 -176 80.5 -162.0Q98 -148 137 -145Q183 -141 211.0 -127.0Q239 -113 252 -89L279 -37L102 401Q87 440 75.5 458.5Q64 477 49.0 483.0Q34 489 8 490V530H311V490Q272 490 256.5 482.5Q241 475 241 455Q241 448 243.5 437.0Q246 426 250 415L352 123H356L442 318Q460 360 469.5 383.5Q479 407 482.5 421.0Q486 435 486 446Q486 472 471.5 481.0Q457 490 413 490V530H654V490Q635 490 620.5 484.5Q606 479 592.0 462.0Q578 445 560.0 412.0Q542 379 516 323Z" transform="translate(24626.0000 0)"/><path d="M100 240H650L480 410L560 490L900 240L560 -10L480 70L650 240H100Z" transform="translate(25538.0000 0)"/><path d="M258 203V155Q258 104 265.0 79.5Q272 55 295.0 48.0Q318 41 364 40V0H30V40Q71 43 89.5 51.0Q108 59 113.5 83.0Q119 107 119 157V279Q119 341 115.5 378.5Q112 416 102.5 435.5Q93 455 74.5 461.5Q56 468 26 468V503L226 540L242 425H246Q273 478 317.0 509.0Q361 540 410 540Q448 540 472.0 521.0Q496 502 496 473Q496 441 477.5 419.0Q459 397 427 397Q407 397 392.5 407.0Q378 417 366.0 427.0Q354 437 340 437Q321 437 304.0 412.0Q287 387 276 345Q268 315 263.0 277.5Q258 240 258 203Z" transform="translate(26804.0000 0)"/><path d="M512 128 540 93Q449 -10 313 -10Q231 -10 169.0 24.0Q107 58 72.5 118.5Q38 179 38 258Q38 341 74.5 404.5Q111 468 176.0 504.0Q241 540 325 540Q431 540 490.0 482.5Q549 425 549 323Q549 307 544.0 303.5Q539 300 516 300H194Q192 295 191.0 287.0Q190 279 190 267Q190 202 209.5 154.5Q229 107 264.5 81.0Q300 55 348 55Q390 55 431.5 74.0Q473 93 512 128ZM201 356H346Q387 356 398.0 360.5Q409 365 409 382Q409 426 384.0 454.0Q359 482 321 482Q278 482 244.5 446.5Q211 411 201 356Z" transform="translate(27302.0000 0)"/><path d="M259 -10 101 401Q86 440 73.5 459.0Q61 478 45.5 484.0Q30 490 7 490V530H306V490Q273 490 257.5 486.5Q242 483 237.5 475.5Q233 468 233 457Q233 444 238.0 427.0Q243 410 250 393L345 131H349L456 392Q463 409 467.0 422.5Q471 436 471 447Q471 469 456.0 479.0Q441 489 403 490V530H624V490Q610 490 597.5 486.5Q585 483 574 473Q568 468 562.0 459.5Q556 451 550.0 440.0Q544 429 537 414L350 -10Z" transform="translate(27887.0000 0)"/><path d="M257 540V164Q257 111 262.5 85.0Q268 59 287.24050632911394 50.45Q306.4810126582278 41.9 344 40V0H29V39.729729729729726Q67 42 86.0090909090909 51.5Q105.01818181818182 61 111.5090909090909 85.5Q118 110 118 157V280Q118 338 116.0 376.0Q114 414 111 427Q106 452 88.5 460.0Q71 468 25 468V502ZM110 752.5Q110 785 132.5 807.5Q155 830 187.5 830Q220 830 242.5 807.5Q265 785 265 752.5Q265 720 242.5 697.5Q220 675 187.5 675Q155 675 132.5 697.5Q110 720 110 752.5Z" transform="translate(28511.0000 0)"/><path d="M512 128 540 93Q449 -10 313 -10Q231 -10 169.0 24.0Q107 58 72.5 118.5Q38 179 38 258Q38 341 74.5 404.5Q111 468 176.0 504.0Q241 540 325 540Q431 540 490.0 482.5Q549 425 549 323Q549 307 544.0 303.5Q539 300 516 300H194Q192 295 191.0 287.0Q190 279 190 267Q190 202 209.5 154.5Q229 107 264.5 81.0Q300 55 348 55Q390 55 431.5 74.0Q473 93 512 128ZM201 356H346Q387 356 398.0 360.5Q409 365 409 382Q409 426 384.0 454.0Q359 482 321 482Q278 482 244.5 446.5Q211 411 201 356Z" transform="translate(28872.0000 0)"/><path d="M238 -10 101 401Q91 433 78.0 452.0Q65 471 48.0 480.0Q31 489 8 490V530H294V490Q258 489 244.0 479.5Q230 470 230 447Q230 437 233.5 423.5Q237 410 241 393L304 159H308L448 530H530L635 159H640L720 366Q727 383 730.5 396.5Q734 410 736.0 421.5Q738 433 738 442Q738 468 721.0 479.0Q704 490 675 490V530H890V490Q872 490 860.0 486.0Q848 482 836.5 467.0Q825 452 810.5 421.0Q796 390 775 336L637 -10H558L452 345H448L313 -10Z" transform="translate(29457.0000 0)"/><path d="M100 240H650L480 410L560 490L900 240L560 -10L480 70L650 240H100Z" transform="translate(30614.0000 0)"/><path d="M298 -10Q222 -10 163.5 24.5Q105 59 72.0 120.5Q39 182 39 261Q39 341 72.0 404.0Q105 467 162.5 503.5Q220 540 292 540Q342 540 381.0 525.0Q420 510 448 474H452V559Q452 618 450.5 660.5Q449 703 446 716Q442 737 416.0 746.5Q390 756 337 756V790L590 830V258Q590 184 591.5 143.0Q593 102 597 81Q602 55 615.0 47.5Q628 40 671 40V1L481 -10V64H477Q443 27 397.5 8.5Q352 -10 298 -10ZM450 248V287Q450 325 442.0 357.5Q434 390 418 415Q400 444 372.0 459.0Q344 474 312 474Q254 474 222.5 419.5Q191 365 191 263Q191 160 222.0 103.5Q253 47 311 47Q344 47 374.0 64.0Q404 81 423 110Q437 132 443.5 164.5Q450 197 450 248Z" transform="translate(31880.0000 0)"/><path d="M512 128 540 93Q449 -10 313 -10Q231 -10 169.0 24.0Q107 58 72.5 118.5Q38 179 38 258Q38 341 74.5 404.5Q111 468 176.0 504.0Q241 540 325 540Q431 540 490.0 482.5Q549 425 549 323Q549 307 544.0 303.5Q539 300 516 300H194Q192 295 191.0 287.0Q190 279 190 267Q190 202 209.5 154.5Q229 107 264.5 81.0Q300 55 348 55Q390 55 431.5 74.0Q473 93 512 128ZM201 356H346Q387 356 398.0 360.5Q409 365 409 382Q409 426 384.0 454.0Q359 482 321 482Q278 482 244.5 446.5Q211 411 201 356Z" transform="translate(32574.0000 0)"/><path d="M247 830V164Q247 111 252.5 85.0Q258 59 277.0 50.5Q296 42 334 40V0H19V40Q57 42 76.0 51.5Q95 61 101.5 85.5Q108 110 108 157V570Q108 628 106.0 666.0Q104 704 101 717Q96 742 78.5 750.0Q61 758 15 758V792Z" transform="translate(33159.0000 0)"/><path d="M257 540V164Q257 111 262.5 85.0Q268 59 287.24050632911394 50.45Q306.4810126582278 41.9 344 40V0H29V39.729729729729726Q67 42 86.0090909090909 51.5Q105.01818181818182 61 111.5090909090909 85.5Q118 110 118 157V280Q118 338 116.0 376.0Q114 414 111 427Q106 452 88.5 460.0Q71 468 25 468V502ZM110 752.5Q110 785 132.5 807.5Q155 830 187.5 830Q220 830 242.5 807.5Q265 785 265 752.5Q265 720 242.5 697.5Q220 675 187.5 675Q155 675 132.5 697.5Q110 720 110 752.5Z" transform="translate(33514.0000 0)"/><path d="M259 -10 101 401Q86 440 73.5 459.0Q61 478 45.5 484.0Q30 490 7 490V530H306V490Q273 490 257.5 486.5Q242 483 237.5 475.5Q233 468 233 457Q233 444 238.0 427.0Q243 410 250 393L345 131H349L456 392Q463 409 467.0 422.5Q471 436 471 447Q471 469 456.0 479.0Q441 489 403 490V530H624V490Q610 490 597.5 486.5Q585 483 574 473Q568 468 562.0 459.5Q556 451 550.0 440.0Q544 429 537 414L350 -10Z" transform="translate(33875.0000 0)"/><path d="M512 128 540 93Q449 -10 313 -10Q231 -10 169.0 24.0Q107 58 72.5 118.5Q38 179 38 258Q38 341 74.5 404.5Q111 468 176.0 504.0Q241 540 325 540Q431 540 490.0 482.5Q549 425 549 323Q549 307 544.0 303.5Q539 300 516 300H194Q192 295 191.0 287.0Q190 279 190 267Q190 202 209.5 154.5Q229 107 264.5 81.0Q300 55 348 55Q390 55 431.5 74.0Q473 93 512 128ZM201 356H346Q387 356 398.0 360.5Q409 365 409 382Q409 426 384.0 454.0Q359 482 321 482Q278 482 244.5 446.5Q211 411 201 356Z" transform="translate(34499.0000 0)"/><path d="M258 203V155Q258 104 265.0 79.5Q272 55 295.0 48.0Q318 41 364 40V0H30V40Q71 43 89.5 51.0Q108 59 113.5 83.0Q119 107 119 157V279Q119 341 115.5 378.5Q112 416 102.5 435.5Q93 455 74.5 461.5Q56 468 26 468V503L226 540L242 425H246Q273 478 317.0 509.0Q361 540 410 540Q448 540 472.0 521.0Q496 502 496 473Q496 441 477.5 419.0Q459 397 427 397Q407 397 392.5 407.0Q378 417 366.0 427.0Q354 437 340 437Q321 437 304.0 412.0Q287 387 276 345Q268 315 263.0 277.5Q258 240 258 203Z" transform="translate(35084.0000 0)"/></g>
  <rect x="78" y="528" width="1044" height="1" fill="#4a4f67"/>
  <g transform="translate(78 565) scale(0.02000000 -0.02000000)" fill="#f9a23a"><path d="M35 0V40Q79.06796116504854 42 101.53398058252426 50.5Q124 59 132.0 83.0Q140 107 140 154V616.3664717348928Q140 663 133.73684210526315 686.5Q127.47368421052632 710 108.23684210526315 719.0Q89 728 51 730.1V770H431Q526.9504132231405 770 607.9752066115702 740.5Q689 711 748.2183908045977 657.5Q807.4367816091954 604 840.2183908045977 531.0Q873 458 873 372Q873 290 842.5 222.0Q812 154 755.5502958579882 104.0Q699.1005917159763 54 621.8816568047337 27.0Q544.6627218934912 0 452 0ZM434 61Q564.7137809187279 61 635.356890459364 140.5Q706 220 706 370Q706 476.85820895522386 672.5 552.4291044776119Q639 628 576.8669724770642 668.5Q514.7339449541284 709 429 709H303.7638888888889Q287 709 287 692V175Q287 61 434 61Z" transform="translate(0.0000 0)"/><path d="M257 540V164Q257 111 262.5 85.0Q268 59 287.24050632911394 50.45Q306.4810126582278 41.9 344 40V0H29V39.729729729729726Q67 42 86.0090909090909 51.5Q105.01818181818182 61 111.5090909090909 85.5Q118 110 118 157V280Q118 338 116.0 376.0Q114 414 111 427Q106 452 88.5 460.0Q71 468 25 468V502ZM110 752.5Q110 785 132.5 807.5Q155 830 187.5 830Q220 830 242.5 807.5Q265 785 265 752.5Q265 720 242.5 697.5Q220 675 187.5 675Q155 675 132.5 697.5Q110 720 110 752.5Z" transform="translate(919.0000 0)"/><path d="M107 35 85 0H54V182H96Q113 111 145.0 77.5Q177 44 228 44Q265 44 285.5 59.5Q306 75 306 102Q306 121 295.0 138.5Q284 156 260.5 174.5Q237 193 200 213Q150 241 118.5 267.5Q87 294 72.5 323.0Q58 352 58 386Q58 431 79.5 466.0Q101 501 138.0 521.0Q175 541 221 541Q252 541 283.0 532.0Q314 523 336 507L354 531H380V380H341Q318 437 293.5 462.0Q269 487 234 487Q206 487 189.5 472.0Q173 457 173 432Q173 404 198.0 379.0Q223 354 279 324Q333 295 366.5 267.0Q400 239 415.0 209.0Q430 179 430 143Q430 74 380.5 32.0Q331 -10 248 -10Q205 -10 168.0 1.5Q131 13 107 35Z" transform="translate(1280.0000 0)"/><path d="M502 121 528 83Q491 39 434.0 14.5Q377 -10 310 -10Q229 -10 168.0 24.5Q107 59 73.0 120.5Q39 182 39 262Q39 346 75.5 408.5Q112 471 177.0 505.5Q242 540 329 540Q388 540 435.0 524.5Q482 509 509.0 482.0Q536 455 536 420Q536 394 520.0 376.5Q504 359 474 359Q446 359 430.5 373.5Q415 388 400 410Q382 437 370.5 452.5Q359 468 348.0 475.0Q337 482 317 482Q258 482 225.5 429.0Q193 376 193 278Q193 172 231.5 114.0Q270 56 343 56Q383 56 424.0 73.0Q465 90 502 121Z" transform="translate(1746.0000 0)"/><path d="M257 540V164Q257 111 262.5 85.0Q268 59 287.24050632911394 50.45Q306.4810126582278 41.9 344 40V0H29V39.729729729729726Q67 42 86.0090909090909 51.5Q105.01818181818182 61 111.5090909090909 85.5Q118 110 118 157V280Q118 338 116.0 376.0Q114 414 111 427Q106 452 88.5 460.0Q71 468 25 468V502ZM110 752.5Q110 785 132.5 807.5Q155 830 187.5 830Q220 830 242.5 807.5Q265 785 265 752.5Q265 720 242.5 697.5Q220 675 187.5 675Q155 675 132.5 697.5Q110 720 110 752.5Z" transform="translate(2310.0000 0)"/><path d="M19 -250V-208Q55 -207 74.0 -197.5Q93 -188 99.5 -163.0Q106 -138 106 -90V282Q106 328 104.0 370.0Q102 412 99 428Q95 451 77.0 460.0Q59 469 17 469V508L218 536V465H222Q255 503 298.0 521.5Q341 540 394 540Q472 540 531.5 504.5Q591 469 625.0 407.0Q659 345 659 265Q659 186 625.0 123.5Q591 61 532.0 25.5Q473 -10 396 -10Q347 -10 310.5 6.0Q274 22 248 56H244V-83Q244 -136 252.5 -162.0Q261 -188 286.5 -197.0Q312 -206 364 -208V-250ZM388 56Q449 56 478.5 107.0Q508 158 508 263Q508 336 494.5 384.5Q481 433 454.5 458.0Q428 483 388 483Q356 483 327.0 469.0Q298 455 281 432Q265 410 255.5 375.0Q246 340 246 300V232Q246 198 255.0 167.0Q264 136 281 111Q300 84 327.0 70.0Q354 56 388 56Z" transform="translate(2671.0000 0)"/><path d="M247 830V164Q247 111 252.5 85.0Q258 59 277.0 50.5Q296 42 334 40V0H19V40Q57 42 76.0 51.5Q95 61 101.5 85.5Q108 110 108 157V570Q108 628 106.0 666.0Q104 704 101 717Q96 742 78.5 750.0Q61 758 15 758V792Z" transform="translate(3368.0000 0)"/><path d="M257 540V164Q257 111 262.5 85.0Q268 59 287.24050632911394 50.45Q306.4810126582278 41.9 344 40V0H29V39.729729729729726Q67 42 86.0090909090909 51.5Q105.01818181818182 61 111.5090909090909 85.5Q118 110 118 157V280Q118 338 116.0 376.0Q114 414 111 427Q106 452 88.5 460.0Q71 468 25 468V502ZM110 752.5Q110 785 132.5 807.5Q155 830 187.5 830Q220 830 242.5 807.5Q265 785 265 752.5Q265 720 242.5 697.5Q220 675 187.5 675Q155 675 132.5 697.5Q110 720 110 752.5Z" transform="translate(3723.0000 0)"/><path d="M257 301V163Q257 109 262.0 84.0Q267 59 285.5 51.0Q304 43 344 40V0H29V40Q68 43 87.0 50.5Q106 58 112.0 82.0Q118 106 118 156V281Q118 340 116.0 376.5Q114 413 111 426Q105 452 88.0 460.0Q71 468 25 468V502L218 540L231 452H235Q268 493 313.5 516.5Q359 540 412 540Q476 540 515.5 522.5Q555 505 586 464Q603 441 616.0 404.5Q629 368 629 304V163Q629 109 634.0 84.0Q639 59 657.5 51.0Q676 43 714 40V0H401V40Q441 42 459.5 50.0Q478 58 484.0 82.5Q490 107 490 156V292Q490 394 464.5 434.5Q439 475 374 475Q342 475 319.0 457.0Q296 439 279 407Q273 395 268.0 378.0Q263 361 260.0 341.5Q257 322 257 301Z" transform="translate(4084.0000 0)"/><path d="M512 128 540 93Q449 -10 313 -10Q231 -10 169.0 24.0Q107 58 72.5 118.5Q38 179 38 258Q38 341 74.5 404.5Q111 468 176.0 504.0Q241 540 325 540Q431 540 490.0 482.5Q549 425 549 323Q549 307 544.0 303.5Q539 300 516 300H194Q192 295 191.0 287.0Q190 279 190 267Q190 202 209.5 154.5Q229 107 264.5 81.0Q300 55 348 55Q390 55 431.5 74.0Q473 93 512 128ZM201 356H346Q387 356 398.0 360.5Q409 365 409 382Q409 426 384.0 454.0Q359 482 321 482Q278 482 244.5 446.5Q211 411 201 356Z" transform="translate(4811.0000 0)"/><path d="M298 -10Q222 -10 163.5 24.5Q105 59 72.0 120.5Q39 182 39 261Q39 341 72.0 404.0Q105 467 162.5 503.5Q220 540 292 540Q342 540 381.0 525.0Q420 510 448 474H452V559Q452 618 450.5 660.5Q449 703 446 716Q442 737 416.0 746.5Q390 756 337 756V790L590 830V258Q590 184 591.5 143.0Q593 102 597 81Q602 55 615.0 47.5Q628 40 671 40V1L481 -10V64H477Q443 27 397.5 8.5Q352 -10 298 -10ZM450 248V287Q450 325 442.0 357.5Q434 390 418 415Q400 444 372.0 459.0Q344 474 312 474Q254 474 222.5 419.5Q191 365 191 263Q191 160 222.0 103.5Q253 47 311 47Q344 47 374.0 64.0Q404 81 423 110Q437 132 443.5 164.5Q450 197 450 248Z" transform="translate(5396.0000 0)"/><path d="M502 121 528 83Q491 39 434.0 14.5Q377 -10 310 -10Q229 -10 168.0 24.5Q107 59 73.0 120.5Q39 182 39 262Q39 346 75.5 408.5Q112 471 177.0 505.5Q242 540 329 540Q388 540 435.0 524.5Q482 509 509.0 482.0Q536 455 536 420Q536 394 520.0 376.5Q504 359 474 359Q446 359 430.5 373.5Q415 388 400 410Q382 437 370.5 452.5Q359 468 348.0 475.0Q337 482 317 482Q258 482 225.5 429.0Q193 376 193 278Q193 172 231.5 114.0Q270 56 343 56Q383 56 424.0 73.0Q465 90 502 121Z" transform="translate(6356.0000 0)"/><path d="M258 203V155Q258 104 265.0 79.5Q272 55 295.0 48.0Q318 41 364 40V0H30V40Q71 43 89.5 51.0Q108 59 113.5 83.0Q119 107 119 157V279Q119 341 115.5 378.5Q112 416 102.5 435.5Q93 455 74.5 461.5Q56 468 26 468V503L226 540L242 425H246Q273 478 317.0 509.0Q361 540 410 540Q448 540 472.0 521.0Q496 502 496 473Q496 441 477.5 419.0Q459 397 427 397Q407 397 392.5 407.0Q378 417 366.0 427.0Q354 437 340 437Q321 437 304.0 412.0Q287 387 276 345Q268 315 263.0 277.5Q258 240 258 203Z" transform="translate(6920.0000 0)"/><path d="M453 -10Q407 -10 382.5 17.5Q358 45 358 97H353Q326 47 279.0 19.0Q232 -9 176 -9Q130 -9 98.0 8.5Q66 26 50.0 54.0Q34 82 34 114Q34 163 74.5 201.5Q115 240 204 278L344 338V380Q344 437 323.5 464.0Q303 491 261 491Q232 491 217.0 476.5Q202 462 188 424Q180 401 163.0 386.0Q146 371 118 371Q90 371 74.5 387.5Q59 404 59 432Q59 483 112.0 511.5Q165 540 268 540Q382 540 430.0 500.0Q478 460 478 364V145Q478 101 486.5 80.5Q495 60 514 60Q522 60 530.5 63.0Q539 66 547 73L562 44Q549 20 519.0 5.0Q489 -10 453 -10ZM238 84Q266 84 290.0 98.0Q314 112 329.0 136.5Q344 161 344 190V285Q281 255 244.0 232.0Q207 209 191.0 188.0Q175 167 175 143Q175 116 192.0 100.0Q209 84 238 84Z" transform="translate(7418.0000 0)"/><path d="M35 0V40Q75 42 94.0 50.5Q113 59 119.0 83.5Q125 108 125 158V475H17V530H125V586Q125 659 157.0 713.5Q189 768 246.0 799.0Q303 830 378 830Q446 830 490.0 806.0Q534 782 534 745Q534 723 517.0 707.5Q500 692 474 692Q449 692 437.0 708.0Q425 724 402 748Q385 766 374.0 770.0Q363 774 355 774Q336 774 317.0 764.5Q298 755 285 735Q272 715 268.0 684.0Q264 653 264 602V530H433V475H264V166Q264 116 273.0 89.0Q282 62 305.5 51.5Q329 41 373 40V0Z" transform="translate(7992.0000 0)"/><path d="M98 475H25V520Q84 537 125.0 572.0Q166 607 186 651H237V530H352V475H237V168Q237 107 251.0 80.5Q265 54 296 54Q316 54 330.5 62.5Q345 71 355 90L376 61Q348 -10 244 -10Q175 -10 136.5 22.0Q98 54 98 112Z" transform="translate(8435.0000 0)"/><path d="M65 274.0860215053763Q65 306 87.06451612903226 328.5Q109.12903225806451 351 140.48387096774195 351Q173 351 195.0 328.5Q217 306 217 274.0860215053763Q217 243.31182795698925 194.93548387096774 221.65591397849462Q172.8709677419355 200 140.3548387096774 200Q109 200 87.0 221.65591397849462Q65 243.31182795698925 65 274.0860215053763Z" transform="translate(9083.0000 0)"/><path d="M257 301V163Q257 109 262.0 84.0Q267 59 285.5 51.0Q304 43 344 40V0H29V40Q68 43 87.0 50.5Q106 58 112.0 82.0Q118 106 118 156V281Q118 340 116.0 376.5Q114 413 111 426Q105 452 88.0 460.0Q71 468 25 468V502L218 540L231 452H235Q268 493 313.5 516.5Q359 540 412 540Q476 540 515.5 522.5Q555 505 586 464Q603 441 616.0 404.5Q629 368 629 304V163Q629 109 634.0 84.0Q639 59 657.5 51.0Q676 43 714 40V0H401V40Q441 42 459.5 50.0Q478 58 484.0 82.5Q490 107 490 156V292Q490 394 464.5 434.5Q439 475 374 475Q342 475 319.0 457.0Q296 439 279 407Q273 395 268.0 378.0Q263 361 260.0 341.5Q257 322 257 301Z" transform="translate(9630.0000 0)"/><path d="M328.0988023952096 540Q388 540 441.0 520.0Q494 500 535.0 463.5Q576 427 599.5 377.5Q623 328 623 269Q623 208 599.5 157.0Q576 106 535.0 68.5Q494 31 440.7547169811321 10.5Q387.50943396226415 -10 328 -10Q269.1696750902527 -10 216.64259927797835 10.5Q164.11552346570397 31 123.66967509025271 68.5Q83.22382671480145 106 60.111913357400724 157.0Q37 208 37 269Q37 348 76.93413173652695 409.0Q116.86826347305389 470 183.0748502994012 505.0Q249.2814371257485 540 328.0988023952096 540ZM328.32 482Q288 482 257.5 455.0Q227 428 210.5 379.9047619047619Q194 331.8095238095238 194 268Q194 169 230.37551867219918 110.0Q266.75103734439836 51 328.05809128630705 51Q391 51 428.5 110.25850340136054Q466 169.51700680272108 466 267.9625850340136Q466 332 449.0 380.0Q432 428 401.1428571428571 455.0Q370.2857142857143 482 328.32 482Z" transform="translate(10357.0000 0)"/><path d="M107 35 85 0H54V182H96Q113 111 145.0 77.5Q177 44 228 44Q265 44 285.5 59.5Q306 75 306 102Q306 121 295.0 138.5Q284 156 260.5 174.5Q237 193 200 213Q150 241 118.5 267.5Q87 294 72.5 323.0Q58 352 58 386Q58 431 79.5 466.0Q101 501 138.0 521.0Q175 541 221 541Q252 541 283.0 532.0Q314 523 336 507L354 531H380V380H341Q318 437 293.5 462.0Q269 487 234 487Q206 487 189.5 472.0Q173 457 173 432Q173 404 198.0 379.0Q223 354 279 324Q333 295 366.5 267.0Q400 239 415.0 209.0Q430 179 430 143Q430 74 380.5 32.0Q331 -10 248 -10Q205 -10 168.0 1.5Q131 13 107 35Z" transform="translate(11283.0000 0)"/><path d="M512 128 540 93Q449 -10 313 -10Q231 -10 169.0 24.0Q107 58 72.5 118.5Q38 179 38 258Q38 341 74.5 404.5Q111 468 176.0 504.0Q241 540 325 540Q431 540 490.0 482.5Q549 425 549 323Q549 307 544.0 303.5Q539 300 516 300H194Q192 295 191.0 287.0Q190 279 190 267Q190 202 209.5 154.5Q229 107 264.5 81.0Q300 55 348 55Q390 55 431.5 74.0Q473 93 512 128ZM201 356H346Q387 356 398.0 360.5Q409 365 409 382Q409 426 384.0 454.0Q359 482 321 482Q278 482 244.5 446.5Q211 411 201 356Z" transform="translate(11749.0000 0)"/><path d="M502 121 528 83Q491 39 434.0 14.5Q377 -10 310 -10Q229 -10 168.0 24.5Q107 59 73.0 120.5Q39 182 39 262Q39 346 75.5 408.5Q112 471 177.0 505.5Q242 540 329 540Q388 540 435.0 524.5Q482 509 509.0 482.0Q536 455 536 420Q536 394 520.0 376.5Q504 359 474 359Q446 359 430.5 373.5Q415 388 400 410Q382 437 370.5 452.5Q359 468 348.0 475.0Q337 482 317 482Q258 482 225.5 429.0Q193 376 193 278Q193 172 231.5 114.0Q270 56 343 56Q383 56 424.0 73.0Q465 90 502 121Z" transform="translate(12334.0000 0)"/><path d="M328.0988023952096 540Q388 540 441.0 520.0Q494 500 535.0 463.5Q576 427 599.5 377.5Q623 328 623 269Q623 208 599.5 157.0Q576 106 535.0 68.5Q494 31 440.7547169811321 10.5Q387.50943396226415 -10 328 -10Q269.1696750902527 -10 216.64259927797835 10.5Q164.11552346570397 31 123.66967509025271 68.5Q83.22382671480145 106 60.111913357400724 157.0Q37 208 37 269Q37 348 76.93413173652695 409.0Q116.86826347305389 470 183.0748502994012 505.0Q249.2814371257485 540 328.0988023952096 540ZM328.32 482Q288 482 257.5 455.0Q227 428 210.5 379.9047619047619Q194 331.8095238095238 194 268Q194 169 230.37551867219918 110.0Q266.75103734439836 51 328.05809128630705 51Q391 51 428.5 110.25850340136054Q466 169.51700680272108 466 267.9625850340136Q466 332 449.0 380.0Q432 428 401.1428571428571 455.0Q370.2857142857143 482 328.32 482Z" transform="translate(12898.0000 0)"/><path d="M257 301V163Q257 109 262.0 84.0Q267 59 285.5 51.0Q304 43 344 40V0H29V40Q68 43 87.0 50.5Q106 58 112.0 82.0Q118 106 118 156V281Q118 340 116.0 376.5Q114 413 111 426Q105 452 88.0 460.0Q71 468 25 468V502L218 540L231 452H235Q268 493 313.5 516.5Q359 540 412 540Q476 540 515.5 522.5Q555 505 586 464Q603 441 616.0 404.5Q629 368 629 304V163Q629 109 634.0 84.0Q639 59 657.5 51.0Q676 43 714 40V0H401V40Q441 42 459.5 50.0Q478 58 484.0 82.5Q490 107 490 156V292Q490 394 464.5 434.5Q439 475 374 475Q342 475 319.0 457.0Q296 439 279 407Q273 395 268.0 378.0Q263 361 260.0 341.5Q257 322 257 301Z" transform="translate(13558.0000 0)"/><path d="M298 -10Q222 -10 163.5 24.5Q105 59 72.0 120.5Q39 182 39 261Q39 341 72.0 404.0Q105 467 162.5 503.5Q220 540 292 540Q342 540 381.0 525.0Q420 510 448 474H452V559Q452 618 450.5 660.5Q449 703 446 716Q442 737 416.0 746.5Q390 756 337 756V790L590 830V258Q590 184 591.5 143.0Q593 102 597 81Q602 55 615.0 47.5Q628 40 671 40V1L481 -10V64H477Q443 27 397.5 8.5Q352 -10 298 -10ZM450 248V287Q450 325 442.0 357.5Q434 390 418 415Q400 444 372.0 459.0Q344 474 312 474Q254 474 222.5 419.5Q191 365 191 263Q191 160 222.0 103.5Q253 47 311 47Q344 47 374.0 64.0Q404 81 423 110Q437 132 443.5 164.5Q450 197 450 248Z" transform="translate(14285.0000 0)"/><path d="M328.0988023952096 540Q388 540 441.0 520.0Q494 500 535.0 463.5Q576 427 599.5 377.5Q623 328 623 269Q623 208 599.5 157.0Q576 106 535.0 68.5Q494 31 440.7547169811321 10.5Q387.50943396226415 -10 328 -10Q269.1696750902527 -10 216.64259927797835 10.5Q164.11552346570397 31 123.66967509025271 68.5Q83.22382671480145 106 60.111913357400724 157.0Q37 208 37 269Q37 348 76.93413173652695 409.0Q116.86826347305389 470 183.0748502994012 505.0Q249.2814371257485 540 328.0988023952096 540ZM328.32 482Q288 482 257.5 455.0Q227 428 210.5 379.9047619047619Q194 331.8095238095238 194 268Q194 169 230.37551867219918 110.0Q266.75103734439836 51 328.05809128630705 51Q391 51 428.5 110.25850340136054Q466 169.51700680272108 466 267.9625850340136Q466 332 449.0 380.0Q432 428 401.1428571428571 455.0Q370.2857142857143 482 328.32 482Z" transform="translate(15245.0000 0)"/><path d="M258 203V155Q258 104 265.0 79.5Q272 55 295.0 48.0Q318 41 364 40V0H30V40Q71 43 89.5 51.0Q108 59 113.5 83.0Q119 107 119 157V279Q119 341 115.5 378.5Q112 416 102.5 435.5Q93 455 74.5 461.5Q56 468 26 468V503L226 540L242 425H246Q273 478 317.0 509.0Q361 540 410 540Q448 540 472.0 521.0Q496 502 496 473Q496 441 477.5 419.0Q459 397 427 397Q407 397 392.5 407.0Q378 417 366.0 427.0Q354 437 340 437Q321 437 304.0 412.0Q287 387 276 345Q268 315 263.0 277.5Q258 240 258 203Z" transform="translate(15905.0000 0)"/><path d="M502 121 528 83Q491 39 434.0 14.5Q377 -10 310 -10Q229 -10 168.0 24.5Q107 59 73.0 120.5Q39 182 39 262Q39 346 75.5 408.5Q112 471 177.0 505.5Q242 540 329 540Q388 540 435.0 524.5Q482 509 509.0 482.0Q536 455 536 420Q536 394 520.0 376.5Q504 359 474 359Q446 359 430.5 373.5Q415 388 400 410Q382 437 370.5 452.5Q359 468 348.0 475.0Q337 482 317 482Q258 482 225.5 429.0Q193 376 193 278Q193 172 231.5 114.0Q270 56 343 56Q383 56 424.0 73.0Q465 90 502 121Z" transform="translate(16403.0000 0)"/><path d="M244 297V164Q244 110 249.0 84.5Q254 59 272.5 51.0Q291 43 331 40V0H16V40Q57 43 75.5 51.0Q94 59 99.5 83.0Q105 107 105 157V568Q105 681 98 716Q93 742 77.0 748.5Q61 755 19 755V792L242 830V461H246Q277 502 315.5 521.0Q354 540 409 540Q459 540 497.5 524.5Q536 509 563 477Q589 446 602.5 404.5Q616 363 616 319V164Q616 109 621.0 83.5Q626 58 644.0 50.5Q662 43 701 40V0H388V40Q428 42 447.0 50.0Q466 58 471.5 82.5Q477 107 477 157V280Q477 387 454.0 430.5Q431 474 375 474Q344 474 321.0 463.0Q298 452 281 431Q262 407 253.0 372.5Q244 338 244 297Z" transform="translate(16967.0000 0)"/><path d="M512 128 540 93Q449 -10 313 -10Q231 -10 169.0 24.0Q107 58 72.5 118.5Q38 179 38 258Q38 341 74.5 404.5Q111 468 176.0 504.0Q241 540 325 540Q431 540 490.0 482.5Q549 425 549 323Q549 307 544.0 303.5Q539 300 516 300H194Q192 295 191.0 287.0Q190 279 190 267Q190 202 209.5 154.5Q229 107 264.5 81.0Q300 55 348 55Q390 55 431.5 74.0Q473 93 512 128ZM201 356H346Q387 356 398.0 360.5Q409 365 409 382Q409 426 384.0 454.0Q359 482 321 482Q278 482 244.5 446.5Q211 411 201 356Z" transform="translate(17681.0000 0)"/><path d="M107 35 85 0H54V182H96Q113 111 145.0 77.5Q177 44 228 44Q265 44 285.5 59.5Q306 75 306 102Q306 121 295.0 138.5Q284 156 260.5 174.5Q237 193 200 213Q150 241 118.5 267.5Q87 294 72.5 323.0Q58 352 58 386Q58 431 79.5 466.0Q101 501 138.0 521.0Q175 541 221 541Q252 541 283.0 532.0Q314 523 336 507L354 531H380V380H341Q318 437 293.5 462.0Q269 487 234 487Q206 487 189.5 472.0Q173 457 173 432Q173 404 198.0 379.0Q223 354 279 324Q333 295 366.5 267.0Q400 239 415.0 209.0Q430 179 430 143Q430 74 380.5 32.0Q331 -10 248 -10Q205 -10 168.0 1.5Q131 13 107 35Z" transform="translate(18266.0000 0)"/><path d="M98 475H25V520Q84 537 125.0 572.0Q166 607 186 651H237V530H352V475H237V168Q237 107 251.0 80.5Q265 54 296 54Q316 54 330.5 62.5Q345 71 355 90L376 61Q348 -10 244 -10Q175 -10 136.5 22.0Q98 54 98 112Z" transform="translate(18732.0000 0)"/><path d="M258 203V155Q258 104 265.0 79.5Q272 55 295.0 48.0Q318 41 364 40V0H30V40Q71 43 89.5 51.0Q108 59 113.5 83.0Q119 107 119 157V279Q119 341 115.5 378.5Q112 416 102.5 435.5Q93 455 74.5 461.5Q56 468 26 468V503L226 540L242 425H246Q273 478 317.0 509.0Q361 540 410 540Q448 540 472.0 521.0Q496 502 496 473Q496 441 477.5 419.0Q459 397 427 397Q407 397 392.5 407.0Q378 417 366.0 427.0Q354 437 340 437Q321 437 304.0 412.0Q287 387 276 345Q268 315 263.0 277.5Q258 240 258 203Z" transform="translate(19114.0000 0)"/><path d="M453 -10Q407 -10 382.5 17.5Q358 45 358 97H353Q326 47 279.0 19.0Q232 -9 176 -9Q130 -9 98.0 8.5Q66 26 50.0 54.0Q34 82 34 114Q34 163 74.5 201.5Q115 240 204 278L344 338V380Q344 437 323.5 464.0Q303 491 261 491Q232 491 217.0 476.5Q202 462 188 424Q180 401 163.0 386.0Q146 371 118 371Q90 371 74.5 387.5Q59 404 59 432Q59 483 112.0 511.5Q165 540 268 540Q382 540 430.0 500.0Q478 460 478 364V145Q478 101 486.5 80.5Q495 60 514 60Q522 60 530.5 63.0Q539 66 547 73L562 44Q549 20 519.0 5.0Q489 -10 453 -10ZM238 84Q266 84 290.0 98.0Q314 112 329.0 136.5Q344 161 344 190V285Q281 255 244.0 232.0Q207 209 191.0 188.0Q175 167 175 143Q175 116 192.0 100.0Q209 84 238 84Z" transform="translate(19612.0000 0)"/><path d="M98 475H25V520Q84 537 125.0 572.0Q166 607 186 651H237V530H352V475H237V168Q237 107 251.0 80.5Q265 54 296 54Q316 54 330.5 62.5Q345 71 355 90L376 61Q348 -10 244 -10Q175 -10 136.5 22.0Q98 54 98 112Z" transform="translate(20186.0000 0)"/><path d="M257 540V164Q257 111 262.5 85.0Q268 59 287.24050632911394 50.45Q306.4810126582278 41.9 344 40V0H29V39.729729729729726Q67 42 86.0090909090909 51.5Q105.01818181818182 61 111.5090909090909 85.5Q118 110 118 157V280Q118 338 116.0 376.0Q114 414 111 427Q106 452 88.5 460.0Q71 468 25 468V502ZM110 752.5Q110 785 132.5 807.5Q155 830 187.5 830Q220 830 242.5 807.5Q265 785 265 752.5Q265 720 242.5 697.5Q220 675 187.5 675Q155 675 132.5 697.5Q110 720 110 752.5Z" transform="translate(20568.0000 0)"/><path d="M328.0988023952096 540Q388 540 441.0 520.0Q494 500 535.0 463.5Q576 427 599.5 377.5Q623 328 623 269Q623 208 599.5 157.0Q576 106 535.0 68.5Q494 31 440.7547169811321 10.5Q387.50943396226415 -10 328 -10Q269.1696750902527 -10 216.64259927797835 10.5Q164.11552346570397 31 123.66967509025271 68.5Q83.22382671480145 106 60.111913357400724 157.0Q37 208 37 269Q37 348 76.93413173652695 409.0Q116.86826347305389 470 183.0748502994012 505.0Q249.2814371257485 540 328.0988023952096 540ZM328.32 482Q288 482 257.5 455.0Q227 428 210.5 379.9047619047619Q194 331.8095238095238 194 268Q194 169 230.37551867219918 110.0Q266.75103734439836 51 328.05809128630705 51Q391 51 428.5 110.25850340136054Q466 169.51700680272108 466 267.9625850340136Q466 332 449.0 380.0Q432 428 401.1428571428571 455.0Q370.2857142857143 482 328.32 482Z" transform="translate(20929.0000 0)"/><path d="M257 301V163Q257 109 262.0 84.0Q267 59 285.5 51.0Q304 43 344 40V0H29V40Q68 43 87.0 50.5Q106 58 112.0 82.0Q118 106 118 156V281Q118 340 116.0 376.5Q114 413 111 426Q105 452 88.0 460.0Q71 468 25 468V502L218 540L231 452H235Q268 493 313.5 516.5Q359 540 412 540Q476 540 515.5 522.5Q555 505 586 464Q603 441 616.0 404.5Q629 368 629 304V163Q629 109 634.0 84.0Q639 59 657.5 51.0Q676 43 714 40V0H401V40Q441 42 459.5 50.0Q478 58 484.0 82.5Q490 107 490 156V292Q490 394 464.5 434.5Q439 475 374 475Q342 475 319.0 457.0Q296 439 279 407Q273 395 268.0 378.0Q263 361 260.0 341.5Q257 322 257 301Z" transform="translate(21589.0000 0)"/><path d="M107 35 85 0H54V182H96Q113 111 145.0 77.5Q177 44 228 44Q265 44 285.5 59.5Q306 75 306 102Q306 121 295.0 138.5Q284 156 260.5 174.5Q237 193 200 213Q150 241 118.5 267.5Q87 294 72.5 323.0Q58 352 58 386Q58 431 79.5 466.0Q101 501 138.0 521.0Q175 541 221 541Q252 541 283.0 532.0Q314 523 336 507L354 531H380V380H341Q318 437 293.5 462.0Q269 487 234 487Q206 487 189.5 472.0Q173 457 173 432Q173 404 198.0 379.0Q223 354 279 324Q333 295 366.5 267.0Q400 239 415.0 209.0Q430 179 430 143Q430 74 380.5 32.0Q331 -10 248 -10Q205 -10 168.0 1.5Q131 13 107 35Z" transform="translate(22582.0000 0)"/><path d="M512 128 540 93Q449 -10 313 -10Q231 -10 169.0 24.0Q107 58 72.5 118.5Q38 179 38 258Q38 341 74.5 404.5Q111 468 176.0 504.0Q241 540 325 540Q431 540 490.0 482.5Q549 425 549 323Q549 307 544.0 303.5Q539 300 516 300H194Q192 295 191.0 287.0Q190 279 190 267Q190 202 209.5 154.5Q229 107 264.5 81.0Q300 55 348 55Q390 55 431.5 74.0Q473 93 512 128ZM201 356H346Q387 356 398.0 360.5Q409 365 409 382Q409 426 384.0 454.0Q359 482 321 482Q278 482 244.5 446.5Q211 411 201 356Z" transform="translate(23048.0000 0)"/><path d="M258 203V155Q258 104 265.0 79.5Q272 55 295.0 48.0Q318 41 364 40V0H30V40Q71 43 89.5 51.0Q108 59 113.5 83.0Q119 107 119 157V279Q119 341 115.5 378.5Q112 416 102.5 435.5Q93 455 74.5 461.5Q56 468 26 468V503L226 540L242 425H246Q273 478 317.0 509.0Q361 540 410 540Q448 540 472.0 521.0Q496 502 496 473Q496 441 477.5 419.0Q459 397 427 397Q407 397 392.5 407.0Q378 417 366.0 427.0Q354 437 340 437Q321 437 304.0 412.0Q287 387 276 345Q268 315 263.0 277.5Q258 240 258 203Z" transform="translate(23633.0000 0)"/><path d="M259 -10 101 401Q86 440 73.5 459.0Q61 478 45.5 484.0Q30 490 7 490V530H306V490Q273 490 257.5 486.5Q242 483 237.5 475.5Q233 468 233 457Q233 444 238.0 427.0Q243 410 250 393L345 131H349L456 392Q463 409 467.0 422.5Q471 436 471 447Q471 469 456.0 479.0Q441 489 403 490V530H624V490Q610 490 597.5 486.5Q585 483 574 473Q568 468 562.0 459.5Q556 451 550.0 440.0Q544 429 537 414L350 -10Z" transform="translate(24131.0000 0)"/><path d="M512 128 540 93Q449 -10 313 -10Q231 -10 169.0 24.0Q107 58 72.5 118.5Q38 179 38 258Q38 341 74.5 404.5Q111 468 176.0 504.0Q241 540 325 540Q431 540 490.0 482.5Q549 425 549 323Q549 307 544.0 303.5Q539 300 516 300H194Q192 295 191.0 287.0Q190 279 190 267Q190 202 209.5 154.5Q229 107 264.5 81.0Q300 55 348 55Q390 55 431.5 74.0Q473 93 512 128ZM201 356H346Q387 356 398.0 360.5Q409 365 409 382Q409 426 384.0 454.0Q359 482 321 482Q278 482 244.5 446.5Q211 411 201 356Z" transform="translate(24755.0000 0)"/><path d="M258 203V155Q258 104 265.0 79.5Q272 55 295.0 48.0Q318 41 364 40V0H30V40Q71 43 89.5 51.0Q108 59 113.5 83.0Q119 107 119 157V279Q119 341 115.5 378.5Q112 416 102.5 435.5Q93 455 74.5 461.5Q56 468 26 468V503L226 540L242 425H246Q273 478 317.0 509.0Q361 540 410 540Q448 540 472.0 521.0Q496 502 496 473Q496 441 477.5 419.0Q459 397 427 397Q407 397 392.5 407.0Q378 417 366.0 427.0Q354 437 340 437Q321 437 304.0 412.0Q287 387 276 345Q268 315 263.0 277.5Q258 240 258 203Z" transform="translate(25340.0000 0)"/></g>
</svg>
